<svg xmlns="http://www.w3.org/2000/svg" viewBox="0 0 446 157.3"><defs><style>.cls-1{fill:#ed4f66;}.cls-2{fill:#212020;}</style></defs><g id="图层_2" data-name="图层 2"><g id="图层_1-2" data-name="图层 1"><path class="cls-1" d="M41.7,107.6c1.6-2.4,2.4-5.6,2.4-9.8a16.9,16.9,0,0,0-2.3-9.2A17.2,17.2,0,0,0,36,83a25.8,25.8,0,0,0-7.8-2.7,43.2,43.2,0,0,0-7.7-.7H0V116H20.5a53.6,53.6,0,0,0,7.5-.6,19.9,19.9,0,0,0,7.7-2.4A15.5,15.5,0,0,0,41.7,107.6Z"/><path class="cls-1" d="M31.6,28.5A18.8,18.8,0,0,0,25.4,26a32.1,32.1,0,0,0-6.8-.7H0V56.6H18.6a32.7,32.7,0,0,0,7-.8,22.4,22.4,0,0,0,6.1-2.6A15.4,15.4,0,0,0,36,48.4a15.7,15.7,0,0,0,1.6-7.5A15.8,15.8,0,0,0,36,33.3,14.6,14.6,0,0,0,31.6,28.5Z"/><path class="cls-1" d="M27.5,1a61.1,61.1,0,0,1,16,2.8,42.4,42.4,0,0,1,14.6,8.1,29.1,29.1,0,0,1,8.2,11.6,39.6,39.6,0,0,1,2.5,13.7A27.6,27.6,0,0,1,66.4,49a37.1,37.1,0,0,1-5.7,8.8,26.2,26.2,0,0,1-6.9,5.7,24.8,24.8,0,0,1-6.1,2.7,45.5,45.5,0,0,1,8.6,3.1,32.2,32.2,0,0,1,9.3,6.2,35.1,35.1,0,0,1,7.5,10.3,32.6,32.6,0,0,1,3,14.5c0,7.2-1.3,13.4-3.9,18.4A33.1,33.1,0,0,1,61.3,131a45.9,45.9,0,0,1-17.1,7,92.9,92.9,0,0,1-14.8,2H76.1V1Z"/><path class="cls-2" d="M125.6,105.1h23.2v26a33.3,33.3,0,0,1-11,6.3,42.1,42.1,0,0,1-14.3,2.2,34.5,34.5,0,0,1-13.2-2.3A27,27,0,0,1,94.2,121a37.4,37.4,0,0,1-2.1-12.8,33.9,33.9,0,0,1,2.3-12.5,29.5,29.5,0,0,1,16.2-16.8,32.2,32.2,0,0,1,12.6-2.4,32.5,32.5,0,0,1,14.4,3,28.1,28.1,0,0,1,10.3,8.4l-9.2,8.8a27.7,27.7,0,0,0-6.4-5.6,15.4,15.4,0,0,0-8.5-2.2,15.8,15.8,0,0,0-7.4,1.6,16.2,16.2,0,0,0-5.5,4.1,18.4,18.4,0,0,0-3.5,6.1,26.7,26.7,0,0,0-1.1,7.5,22.2,22.2,0,0,0,1.3,7.9,18.6,18.6,0,0,0,3.8,6,17.3,17.3,0,0,0,5.7,3.8,18.9,18.9,0,0,0,7.2,1.4,22.9,22.9,0,0,0,6.6-.9,15.6,15.6,0,0,0,5.3-2.7v-7.6H125.6Z"/><path class="cls-2" d="M183.2,134.2a14.5,14.5,0,0,1-5.5,3.9,19.5,19.5,0,0,1-7.4,1.4,20.6,20.6,0,0,1-4.7-.7,12.8,12.8,0,0,1-4.6-2.1,11.4,11.4,0,0,1-3.5-4,12.2,12.2,0,0,1-1.4-6.3,14,14,0,0,1,1.5-6.6,12.7,12.7,0,0,1,4.1-4.8,18.8,18.8,0,0,1,6.2-3,30.6,30.6,0,0,1,7.7-1h4.5l3.1.3v-.9a6.1,6.1,0,0,0-.7-2.8,8.1,8.1,0,0,0-1.8-1.9,7.4,7.4,0,0,0-2.6-1,10.6,10.6,0,0,0-3.1-.4,20.4,20.4,0,0,0-7.1,1.1A24.9,24.9,0,0,0,163,108l-5.3-8,3.1-2a38.9,38.9,0,0,1,4-1.8c1.6-.5,3.4-.9,5.3-1.3a44.7,44.7,0,0,1,6.7-.5c6.5,0,11.2,1.8,14.3,5.2s4.6,8.1,4.6,14v24.6H183.5Zm0-14.7-1.8-.2-2.9-.2c-3.6,0-6.1.6-7.6,1.6a4.9,4.9,0,0,0-2.3,4.3c0,3.5,2.1,5.2,6.3,5.2a10.6,10.6,0,0,0,3.1-.4,10.8,10.8,0,0,0,2.6-1.4,8.4,8.4,0,0,0,1.8-2.3,6.6,6.6,0,0,0,.8-3.2Z"/><path class="cls-2" d="M208.2,106.1h-6.6V95.9h6.6V83.1h13V95.9h11v10.2h-11v16.7a8,8,0,0,0,1.2,4.7,4.6,4.6,0,0,0,3.9,1.7,8.6,8.6,0,0,0,3.4-.7,17.5,17.5,0,0,0,2.7-1.6l5.3,7.9a20.9,20.9,0,0,1-13.4,4.9,19.2,19.2,0,0,1-7.6-1.3,13,13,0,0,1-4.9-3.6,14.3,14.3,0,0,1-2.8-5.5,32.6,32.6,0,0,1-.8-7.3Z"/><path class="cls-2" d="M281,133.6l-2.2,1.5a24.7,24.7,0,0,1-3.7,2,32.3,32.3,0,0,1-5.5,1.8,31.4,31.4,0,0,1-7.2.7,27.6,27.6,0,0,1-9.8-1.6,20.4,20.4,0,0,1-7.3-4.7,19.3,19.3,0,0,1-4.6-7.2,24.7,24.7,0,0,1-1.6-9.2,24.1,24.1,0,0,1,1.5-8.5,20,20,0,0,1,4.3-7.2,18.9,18.9,0,0,1,6.8-4.9,21,21,0,0,1,9.2-1.9,21.4,21.4,0,0,1,9.1,1.8,19.9,19.9,0,0,1,6.5,5,21.7,21.7,0,0,1,4,7.7,33.6,33.6,0,0,1,1.4,9.8v2.2H251.7a8.4,8.4,0,0,0,3.1,6c1.9,1.7,4.6,2.5,8,2.5a19.1,19.1,0,0,0,8.2-1.5,20,20,0,0,0,4.6-2.5Zm-11.4-21a9.2,9.2,0,0,0-.5-2.8,8.3,8.3,0,0,0-1.7-2.6,9.3,9.3,0,0,0-2.7-1.9,9,9,0,0,0-3.9-.8,9.3,9.3,0,0,0-3.9.8,10.4,10.4,0,0,0-2.9,1.9,10.6,10.6,0,0,0-1.7,2.6,7.1,7.1,0,0,0-.6,2.8Z"/><path class="cls-2" d="M283.7,95.9H297l7.4,27.1,8.2-27.1H323l8.3,27.1,7.4-27.1h13.1l-14.5,42.3H325.5l-7.9-23.7-7.8,23.7H298.2Z"/><path class="cls-2" d="M381.5,134.2a13.8,13.8,0,0,1-5.5,3.9,19,19,0,0,1-7.3,1.4,21.4,21.4,0,0,1-4.8-.7,14.6,14.6,0,0,1-4.6-2.1,12.5,12.5,0,0,1-3.5-4,13.3,13.3,0,0,1-1.4-6.3,14,14,0,0,1,1.5-6.6A13.6,13.6,0,0,1,360,115a19.9,19.9,0,0,1,6.2-3,31.2,31.2,0,0,1,7.7-1h4.6l3,.3v-.9a5.1,5.1,0,0,0-.7-2.8,5.4,5.4,0,0,0-1.8-1.9,6.7,6.7,0,0,0-2.6-1,9.5,9.5,0,0,0-3-.4,21,21,0,0,0-7.2,1.1,21.5,21.5,0,0,0-4.8,2.5l-5.4-8,3.1-2a41.4,41.4,0,0,1,4.1-1.8,45.8,45.8,0,0,1,5.3-1.3,43.6,43.6,0,0,1,6.7-.5c6.4,0,11.2,1.8,14.2,5.2s4.6,8.1,4.6,14v24.6H381.9Zm0-14.7-1.7-.2-2.9-.2c-3.6,0-6.2.6-7.7,1.6A4.8,4.8,0,0,0,367,125c0,3.5,2.1,5.2,6.3,5.2a10.3,10.3,0,0,0,3-.4,9.2,9.2,0,0,0,2.6-1.4,7.1,7.1,0,0,0,1.9-2.3,6.6,6.6,0,0,0,.7-3.2Z"/><path class="cls-2" d="M404,144.9a13.8,13.8,0,0,0,2.4,1.4,6.4,6.4,0,0,0,2.8.6,4.9,4.9,0,0,0,3.5-1.3,11.5,11.5,0,0,0,2.6-4.4l1.3-3.5L397.3,95.9h14.8l10.5,26.7,9.6-26.7H446l-17.3,42-2.8,7a28.5,28.5,0,0,1-3.5,6.2,13.9,13.9,0,0,1-12.3,6.2,19.7,19.7,0,0,1-6.2-.9,19.5,19.5,0,0,1-5.2-2.6Z"/><rect class="cls-1" x="164.4" y="1" width="15" height="62.19"/><path class="cls-1" d="M178.4,2V62.2h-13V2h13m2-2h-17V64.2h17V0Z"/><path class="cls-1" d="M208.8,64.6a23.7,23.7,0,0,1-9.7-1.9,22.9,22.9,0,0,1-7.5-5,24.6,24.6,0,0,1-4.8-7.5A23.9,23.9,0,0,1,185,41a24.4,24.4,0,0,1,6.6-16.7,22.9,22.9,0,0,1,7.5-5,23.7,23.7,0,0,1,9.7-1.9,23.2,23.2,0,0,1,9.6,1.9,22.6,22.6,0,0,1,12.3,12.5,25.5,25.5,0,0,1,1.7,9.2,25.9,25.9,0,0,1-1.7,9.2,24.9,24.9,0,0,1-4.9,7.5,22.5,22.5,0,0,1-7.4,5A23.2,23.2,0,0,1,208.8,64.6Zm0-33.9a10.2,10.2,0,0,0-4,.8,9.1,9.1,0,0,0-2.8,2.3,10.6,10.6,0,0,0-1.8,3.3,12.7,12.7,0,0,0-.6,3.9,13.2,13.2,0,0,0,.6,3.9,10.6,10.6,0,0,0,1.8,3.3,7.9,7.9,0,0,0,2.8,2.3,8.7,8.7,0,0,0,4,.9,8.6,8.6,0,0,0,3.9-.9,8.9,8.9,0,0,0,2.8-2.3,10.6,10.6,0,0,0,1.8-3.3,13.2,13.2,0,0,0,.6-3.9,12.7,12.7,0,0,0-.6-3.9,10.6,10.6,0,0,0-1.8-3.3,9.1,9.1,0,0,0-2.8-2.3A10.1,10.1,0,0,0,208.8,30.7Z"/><path class="cls-1" d="M208.8,18.4A22.5,22.5,0,0,1,225.1,25a23.6,23.6,0,0,1,4.7,7.2,23.3,23.3,0,0,1,1.6,8.8,23.7,23.7,0,0,1-1.6,8.8,24.9,24.9,0,0,1-4.7,7.2,23.9,23.9,0,0,1-25.6,4.8,22.7,22.7,0,0,1-7.2-4.8,24.6,24.6,0,0,1-4.6-7.2A23.8,23.8,0,0,1,186,41a23.3,23.3,0,0,1,6.3-16,22.7,22.7,0,0,1,7.2-4.8,23.4,23.4,0,0,1,9.3-1.8m0,34a10.1,10.1,0,0,0,4.3-1,9,9,0,0,0,3.2-2.6,9.6,9.6,0,0,0,1.9-3.6,12.3,12.3,0,0,0,.7-4.2,11.6,11.6,0,0,0-.7-4.2,8.9,8.9,0,0,0-1.9-3.6,8.7,8.7,0,0,0-3.2-2.5,8.8,8.8,0,0,0-4.3-1,8.9,8.9,0,0,0-4.4,1,8,8,0,0,0-3.2,2.5,10.5,10.5,0,0,0-2,3.6,14.2,14.2,0,0,0-.6,4.2,15.2,15.2,0,0,0,.6,4.2,11.5,11.5,0,0,0,2,3.6,8.2,8.2,0,0,0,3.2,2.6,10.2,10.2,0,0,0,4.4,1m0-36a27.9,27.9,0,0,0-10.1,1.9,25,25,0,0,0-7.8,5.3,27.7,27.7,0,0,0-5.1,7.8A25.6,25.6,0,0,0,184,41a24.7,24.7,0,0,0,1.8,9.5,26.3,26.3,0,0,0,5.1,7.8,23.7,23.7,0,0,0,7.8,5.4,25.6,25.6,0,0,0,10.1,1.9,25.1,25.1,0,0,0,10-1.9,22.3,22.3,0,0,0,7.7-5.4,22.9,22.9,0,0,0,5.1-7.8,24.7,24.7,0,0,0,1.8-9.5,25.6,25.6,0,0,0-1.8-9.6,24,24,0,0,0-5.1-7.8,23.5,23.5,0,0,0-7.7-5.3,27,27,0,0,0-10-1.9Zm0,34a7.8,7.8,0,0,1-3.5-.8,5.6,5.6,0,0,1-2.5-2,10.3,10.3,0,0,1-1.7-3.1,13.4,13.4,0,0,1-.5-3.5,14.9,14.9,0,0,1,.5-3.6,11.1,11.1,0,0,1,1.7-3,7.4,7.4,0,0,1,2.5-2,9.5,9.5,0,0,1,3.5-.7,8.9,8.9,0,0,1,3.4.7,7.5,7.5,0,0,1,2.6,2.1,7.3,7.3,0,0,1,1.5,2.9,10.9,10.9,0,0,1,.6,3.6,11.3,11.3,0,0,1-.6,3.6,7.3,7.3,0,0,1-1.6,3,7.1,7.1,0,0,1-2.5,2,7.4,7.4,0,0,1-3.4.8Z"/><path class="cls-1" d="M257.4,64.6a49,49,0,0,1-10.4-1,58.1,58.1,0,0,1-8.1-2.1l-.7-.2V1h15V20.9a15.1,15.1,0,0,1,3.6-1.8,18.1,18.1,0,0,1,6.5-1.1,18.9,18.9,0,0,1,8.4,1.8,17.9,17.9,0,0,1,6.3,4.9,21.1,21.1,0,0,1,3.8,7.1,26.1,26.1,0,0,1,1.3,8.5,28.4,28.4,0,0,1-1.7,9.8,22.9,22.9,0,0,1-5.1,7.8,23.6,23.6,0,0,1-8.1,5A32.6,32.6,0,0,1,257.4,64.6Zm-4.2-13.4,1.5.4,3.5.2a8.8,8.8,0,0,0,7.2-3c1.8-2,2.6-4.7,2.6-8.1a14.7,14.7,0,0,0-.4-3.6,9.8,9.8,0,0,0-1.4-3.1,5.6,5.6,0,0,0-2.2-2.1,5.8,5.8,0,0,0-3.3-.8c-2.6,0-4.5.7-5.7,2a8.5,8.5,0,0,0-1.8,5.7Z"/><path class="cls-1" d="M252.2,2V23a13.6,13.6,0,0,1,4.9-3,19.1,19.1,0,0,1,6.2-1,17.1,17.1,0,0,1,8,1.7,16.8,16.8,0,0,1,5.9,4.6,22.3,22.3,0,0,1,3.7,6.8,27.6,27.6,0,0,1,1.2,8.2,26.1,26.1,0,0,1-1.6,9.4,20,20,0,0,1-4.9,7.4,21,21,0,0,1-7.7,4.8,28.9,28.9,0,0,1-10.5,1.7,47.7,47.7,0,0,1-10.2-1,57.9,57.9,0,0,1-8-2V2h13m6,50.8a10,10,0,0,0,8-3.3,13.3,13.3,0,0,0,2.8-8.8,17.2,17.2,0,0,0-.4-3.9,17.5,17.5,0,0,0-1.5-3.4,9.9,9.9,0,0,0-2.6-2.4,7.6,7.6,0,0,0-3.8-.9c-2.9,0-5.1.8-6.5,2.4a9.5,9.5,0,0,0-2,6.3V51.9l2.4.7,3.6.2M254.2,0h-17V62l1.3.5c2.2.7,5,1.4,8.3,2.1a51.6,51.6,0,0,0,10.6,1,32.9,32.9,0,0,0,11.2-1.8,23.9,23.9,0,0,0,8.4-5.2,23.2,23.2,0,0,0,5.3-8.1,28.8,28.8,0,0,0,1.8-10.2,28,28,0,0,0-1.3-8.8,22.9,22.9,0,0,0-4-7.4,18.6,18.6,0,0,0-6.6-5.2,19.7,19.7,0,0,0-8.9-1.9,20.9,20.9,0,0,0-6.9,1.2,14.5,14.5,0,0,0-2.2.9V0Zm0,50.5V38.8a7,7,0,0,1,1.6-5c1-1.2,2.6-1.7,4.9-1.7a6.1,6.1,0,0,1,2.8.6,5.8,5.8,0,0,1,1.9,1.9,11.1,11.1,0,0,1,1.2,2.7,13.2,13.2,0,0,1,.4,3.4c0,3.2-.7,5.6-2.3,7.5a8.1,8.1,0,0,1-6.5,2.6l-3.3-.2Z"/><rect class="cls-1" x="94.2" y="1" width="24" height="62"/><path class="cls-1" d="M122.9,1h15.5a14.5,14.5,0,0,1,14.5,14.5v0A14.5,14.5,0,0,1,138.4,30H122.9a0,0,0,0,1,0,0V1A0,0,0,0,1,122.9,1Z"/><path class="cls-1" d="M122.9,34h20.5a14.5,14.5,0,0,1,14.5,14.5v0A14.5,14.5,0,0,1,143.4,63H122.9a0,0,0,0,1,0,0V34a0,0,0,0,1,0,0Z"/></g></g></svg>