<svg xmlns="http://www.w3.org/2000/svg" viewBox="0 0 356.3 202.1"><defs><style>.cls-1{fill:#41c2a5;}.cls-2{fill:#003776;}</style></defs><g id="图层_2" data-name="图层 2"><g id="图层_1-2" data-name="图层 1"><path d="M8.8,142.7h10l-7.1,36.7h21l-1.7,9H0Z"/><path d="M42.6,156.3H52l-6.2,32.1H36.3Zm2.2-13.5H55l-1.7,8.7H43.1Z"/><path d="M59.9,156.3h9l-.4,3.5a12.4,12.4,0,0,1,4.6-3.3,13,13,0,0,1,5.4-1,8.7,8.7,0,0,1,6.9,2.7,10.4,10.4,0,0,1,2.4,7.2c0,.5-.1,1.1-.1,1.6a9.9,9.9,0,0,1-.2,1.7l-3.8,19.7H74.1l3.5-18a7.1,7.1,0,0,0,.2-2,5.4,5.4,0,0,0-.9-3.3,3.9,3.9,0,0,0-3.1-1.2,6.8,6.8,0,0,0-2.9.6,12.4,12.4,0,0,0-2.2,1.8,10.4,10.4,0,0,0-1.5,2.5,11.8,11.8,0,0,0-1,3L63,188.4H53.6Z"/><path d="M110.6,155.2a15.5,15.5,0,0,1,5.9,1.1,12.7,12.7,0,0,1,4.1,3.1,13.1,13.1,0,0,1,2.5,4.3,17.9,17.9,0,0,1,.7,5.1,17.7,17.7,0,0,1-.2,3.3,19.8,19.8,0,0,1-.6,3.2H101.8a6.3,6.3,0,0,0,2.1,4.8,7.4,7.4,0,0,0,5.1,1.8,13.4,13.4,0,0,0,4.6-.8,31.7,31.7,0,0,0,4.1-2.1l3.7,6.2a28,28,0,0,1-6.2,3.2,24.7,24.7,0,0,1-7.5,1.1,22,22,0,0,1-5.8-.8A13.7,13.7,0,0,1,97,186a12.5,12.5,0,0,1-3.3-4.5,14.1,14.1,0,0,1-1.3-6.4,22.9,22.9,0,0,1,1.4-8.1,20,20,0,0,1,3.8-6.3,17,17,0,0,1,5.8-4.1A18.9,18.9,0,0,1,110.6,155.2Zm4.4,13.9a2.2,2.2,0,0,0,.1-.8v-.5a4.6,4.6,0,0,0-1.4-3.7,5.4,5.4,0,0,0-3.8-1.4,7.1,7.1,0,0,0-4.7,1.6,8.3,8.3,0,0,0-3,4.8Z"/><path d="M133.2,156.3h9.1l-.5,4a16,16,0,0,1,4-3.3,9.8,9.8,0,0,1,5.2-1.3,7.8,7.8,0,0,1,2.2.2l1.9.5-3,8.6a4.9,4.9,0,0,0-1.8-.5h-1.8a7.7,7.7,0,0,0-6,2.5,12.9,12.9,0,0,0-3.2,6.5l-2.8,15H127Z"/><path d="M171.7,185.4a11.7,11.7,0,0,1-9.3,4,10.9,10.9,0,0,1-3.6-.6,7.9,7.9,0,0,1-2.9-1.8,9.3,9.3,0,0,1-2-3,9.4,9.4,0,0,1-.7-3.9,11.8,11.8,0,0,1,1.1-5,11.6,11.6,0,0,1,3.1-3.9,15.6,15.6,0,0,1,5-2.5,22.9,22.9,0,0,1,6.6-.9h3l3,.3v-.7a1.3,1.3,0,0,0,.1-.6,1.1,1.1,0,0,0,.1-.5,3,3,0,0,0-1.8-3,9.8,9.8,0,0,0-4-.8,14.1,14.1,0,0,0-5,.8,33.6,33.6,0,0,0-3.8,1.9l-3.4-5.9a21.6,21.6,0,0,1,5.9-2.9,23.9,23.9,0,0,1,8.4-1.3c4,0,7.1.9,9.3,2.9s3.2,4.7,3.2,8.3a10.3,10.3,0,0,1-.1,1.7c-.1.6-.1,1.1-.2,1.7l-3.7,18.6h-8.7Zm2.1-11.1-1.7-.3h-2.4a9.1,9.1,0,0,0-5.5,1.4,4.1,4.1,0,0,0-1.8,3.5,3.1,3.1,0,0,0,1,2.6,4.1,4.1,0,0,0,2.8.9l2.2-.3a6.7,6.7,0,0,0,2.1-1,7.2,7.2,0,0,0,1.8-1.7,6.7,6.7,0,0,0,1-2.6Z"/><path class="cls-1" d="M203.8,175.4a19.4,19.4,0,0,0,5.4,3.9,13.9,13.9,0,0,0,6.3,1.3,7.8,7.8,0,0,0,5.1-1.5,4.9,4.9,0,0,0,1.8-3.7,4.5,4.5,0,0,0-.4-2,5.1,5.1,0,0,0-1.1-1.6,11.4,11.4,0,0,0-2.3-1.5l-3.6-1.7a22.2,22.2,0,0,1-8.2-5.1,11.6,11.6,0,0,1-2.7-8,12.4,12.4,0,0,1,1.1-5.4,13.4,13.4,0,0,1,3.4-4.5,16.5,16.5,0,0,1,5.4-3,21.5,21.5,0,0,1,7.5-1.1,22.4,22.4,0,0,1,8.9,1.7,18.4,18.4,0,0,1,6.6,5.1l-6.4,5.9a15.4,15.4,0,0,0-4.4-3.3,12.4,12.4,0,0,0-5.2-1.1,7.6,7.6,0,0,0-5,1.4,4.6,4.6,0,0,0-1.5,3.6,5.2,5.2,0,0,0,.3,1.8,5.8,5.8,0,0,0,1.3,1.5l2.4,1.6,3.9,1.7c3.9,1.6,6.7,3.4,8.5,5.5a11.1,11.1,0,0,1,2.6,7.4,16,16,0,0,1-1.4,6.7,13.7,13.7,0,0,1-3.8,4.8,16.9,16.9,0,0,1-5.7,2.8,23.4,23.4,0,0,1-7.1,1,30.4,30.4,0,0,1-10-1.7,20.3,20.3,0,0,1-8.2-5.4Z"/><path class="cls-1" d="M238.5,156.3H248l1.5,21,9.9-21h7.7l2,21,9.3-21h10l-16.9,32.1h-8.4l-2.4-18.1-9.5,18.1H243Z"/><path class="cls-1" d="M305.1,185.4a15,15,0,0,1-4.3,3.1,14.4,14.4,0,0,1-5.1.9,10.3,10.3,0,0,1-3.5-.6,8.3,8.3,0,0,1-4.9-4.8,9.4,9.4,0,0,1-.7-3.9,11.2,11.2,0,0,1,4.2-8.9,14.7,14.7,0,0,1,5-2.5,21.9,21.9,0,0,1,6.6-.9h3l3,.3v-.7c0-.2.1-.4.1-.6v-.5a2.9,2.9,0,0,0-1.7-3,10.2,10.2,0,0,0-4-.8,15.2,15.2,0,0,0-5.1.8c-1.3.6-2.6,1.2-3.8,1.9l-3.3-5.9a20.3,20.3,0,0,1,5.9-2.9,23.7,23.7,0,0,1,8.3-1.3c4.1,0,7.2.9,9.3,2.9s3.3,4.7,3.3,8.3a10.3,10.3,0,0,1-.1,1.7l-.3,1.7-3.6,18.6h-8.8Zm2.1-11.1-1.7-.3h-2.4a9.1,9.1,0,0,0-5.5,1.4,4.2,4.2,0,0,0-1.9,3.5,3.2,3.2,0,0,0,1.1,2.6,4.1,4.1,0,0,0,2.8.9l2.1-.3a6.2,6.2,0,0,0,2.2-1,6.8,6.8,0,0,0,2.8-4.3Z"/><path class="cls-1" d="M327.2,156.3h9.1l-.4,3.5a12,12,0,0,1,4.1-3.1,12.7,12.7,0,0,1,5.4-1,9.9,9.9,0,0,1,4.2.9,11.7,11.7,0,0,1,3.5,2.7,12.7,12.7,0,0,1,2.3,4.1,15.1,15.1,0,0,1,.9,5.3,22.8,22.8,0,0,1-1.6,9.1,18.9,18.9,0,0,1-4.3,6.5,17.6,17.6,0,0,1-6.2,3.9,22.9,22.9,0,0,1-7.3,1.3,15.5,15.5,0,0,1-3.1-.3,17.4,17.4,0,0,1-3.4-1.2l-2.7,14.1h-9.4Zm4.8,24a5.3,5.3,0,0,0,2.2.8,9.9,9.9,0,0,0,2.4.3,9.2,9.2,0,0,0,4.1-1,10.7,10.7,0,0,0,3.1-2.5,11.8,11.8,0,0,0,1.9-3.7,13.1,13.1,0,0,0,.7-4.4,6.5,6.5,0,0,0-1.3-4.3,4.7,4.7,0,0,0-3.7-1.5,6.8,6.8,0,0,0-5,2,10.2,10.2,0,0,0-2.8,5.7Z"/><path class="cls-1" d="M166.7,41.7h36.6a3.8,3.8,0,0,1,3.5,2.5l3.9,13.5,23.9-27c.9-1,.4-2.8-1.1-3.8L193.9,0l3.9,13.4a1.9,1.9,0,0,1-1.9,2.6l-55.7.2c-6,0-9.6,4.6-7.9,10.2l11.2,38.4h27.2l-6-20.4A2,2,0,0,1,166.7,41.7Z"/><path class="cls-2" d="M187.7,81.2H151a3.8,3.8,0,0,1-3.4-2.6l-4-13.4-23.8,27c-.9,1-.4,2.8,1.1,3.8l39.6,26.8-3.9-13.5a1.8,1.8,0,0,1,1.9-2.5l55.7-.2c6,0,9.5-4.6,7.9-10.3L210.9,58H183.7l6,20.5A2,2,0,0,1,187.7,81.2Z"/></g></g></svg>