<svg xmlns="http://www.w3.org/2000/svg" viewBox="0 0 374.1 166.5"><defs><style>.cls-1{fill:#2d51e8;}.cls-2{opacity:0.8;}.cls-3{opacity:0.5;}</style></defs><g id="图层_2" data-name="图层 2"><g id="图层_1-2" data-name="图层 1"><path d="M8.8,119.6h10l-7.1,36.7h21L31,165.4H0Z"/><path d="M42.6,133.2H52l-6.2,32.2H36.3Zm2.2-13.5H55l-1.7,8.7H43.1Z"/><path d="M59.9,133.2h9l-.4,3.5a15.2,15.2,0,0,1,4.6-3.3,14.9,14.9,0,0,1,5.4-.9,9,9,0,0,1,6.9,2.6,10.4,10.4,0,0,1,2.4,7.2c0,.6-.1,1.1-.1,1.7a8.8,8.8,0,0,1-.2,1.6l-3.8,19.8H74.1l3.5-18.1a6.2,6.2,0,0,0,.2-1.9,5.4,5.4,0,0,0-.9-3.3,3.6,3.6,0,0,0-3.1-1.3,5.7,5.7,0,0,0-2.9.7,8.7,8.7,0,0,0-2.2,1.7,11,11,0,0,0-1.5,2.6,9.6,9.6,0,0,0-1,3L63,165.4H53.6Z"/><path d="M110.6,132.1a13.8,13.8,0,0,1,5.9,1.2,14,14,0,0,1,4.1,3,13.6,13.6,0,0,1,2.5,4.4,17,17,0,0,1,.7,5.1,16.7,16.7,0,0,1-.2,3.2,18,18,0,0,1-.6,3.2H101.8a6,6,0,0,0,2.1,4.8,7.5,7.5,0,0,0,5.1,1.9,11.4,11.4,0,0,0,4.6-.9,17.7,17.7,0,0,0,4.1-2.1l3.7,6.3a27.7,27.7,0,0,1-6.2,3.1,21.9,21.9,0,0,1-7.5,1.2,18.5,18.5,0,0,1-5.8-.9A13.6,13.6,0,0,1,97,163a12.5,12.5,0,0,1-3.3-4.5,14.5,14.5,0,0,1-1.3-6.5,22.8,22.8,0,0,1,1.4-8,19.4,19.4,0,0,1,3.8-6.4,16.7,16.7,0,0,1,5.8-4A17.2,17.2,0,0,1,110.6,132.1ZM115,146a1.7,1.7,0,0,0,.1-.7v-.6a4.9,4.9,0,0,0-1.4-3.7,5.3,5.3,0,0,0-3.8-1.3,7.5,7.5,0,0,0-4.7,1.5,8.3,8.3,0,0,0-3,4.8Z"/><path d="M133.2,133.2h9.1l-.5,4.1a14.5,14.5,0,0,1,4-3.4,9.8,9.8,0,0,1,5.2-1.3l2.2.2a7,7,0,0,1,1.9.6l-3,8.5-1.8-.5h-1.8a7.8,7.8,0,0,0-6,2.6,12.9,12.9,0,0,0-3.2,6.5l-2.8,15H127Z"/><path d="M171.7,162.4a12,12,0,0,1-4.3,3,13.9,13.9,0,0,1-5,.9,10.9,10.9,0,0,1-3.6-.6,7.9,7.9,0,0,1-2.9-1.8,8.8,8.8,0,0,1-2.7-6.8,12.6,12.6,0,0,1,1.1-5.1,11.6,11.6,0,0,1,3.1-3.9,18,18,0,0,1,5-2.5,22.9,22.9,0,0,1,6.6-.9h3l3,.4v-.7a2,2,0,0,0,.1-.7.7.7,0,0,0,.1-.5,2.9,2.9,0,0,0-1.8-2.9,9.8,9.8,0,0,0-4-.8,14.1,14.1,0,0,0-5,.8,22.2,22.2,0,0,0-3.8,1.8l-3.4-5.9a29.5,29.5,0,0,1,5.9-2.9,26.5,26.5,0,0,1,8.4-1.3c4,0,7.1,1,9.3,2.9s3.2,4.7,3.2,8.4a9.2,9.2,0,0,1-.1,1.6c-.1.6-.1,1.2-.2,1.7l-3.7,18.7h-8.7Zm2.1-11.1-1.7-.3-2.4-.2a9.1,9.1,0,0,0-5.5,1.4,4.2,4.2,0,0,0-1.8,3.5,3.3,3.3,0,0,0,1,2.7,4.1,4.1,0,0,0,2.8.9l2.2-.3a10,10,0,0,0,2.1-1,10.2,10.2,0,0,0,1.8-1.8,6.3,6.3,0,0,0,1-2.5Z"/><path class="cls-1" d="M209.1,119.6h9.6l6.6,21.7,15.9-21.7h10l-6.8,45.8H234.1l4.5-29.1-12.7,17h-5.3l-6-17.1-6.7,29.2h-9.7Z"/><path class="cls-1" d="M271.5,132.1a13.1,13.1,0,0,1,5.8,1.2,13.3,13.3,0,0,1,4.2,3,11.8,11.8,0,0,1,2.4,4.4,17,17,0,0,1,.8,5.1c0,1.1-.1,2.2-.2,3.2a18,18,0,0,1-.6,3.2H262.6a6,6,0,0,0,2.1,4.8,7.7,7.7,0,0,0,5.2,1.9,11.8,11.8,0,0,0,4.6-.9,15.3,15.3,0,0,0,4-2.1l3.8,6.3a27.7,27.7,0,0,1-6.2,3.1,22.7,22.7,0,0,1-7.5,1.2,19.2,19.2,0,0,1-5.9-.9,13.1,13.1,0,0,1-8.2-7.1,16,16,0,0,1-1.2-6.5,22.8,22.8,0,0,1,1.4-8,19.4,19.4,0,0,1,3.8-6.4,16.4,16.4,0,0,1,5.7-4A18,18,0,0,1,271.5,132.1Zm4.4,13.9a1.7,1.7,0,0,0,.1-.7v-.6a5.3,5.3,0,0,0-1.4-3.7,5.6,5.6,0,0,0-3.9-1.3,7.8,7.8,0,0,0-4.7,1.5,8.8,8.8,0,0,0-2.9,4.8Z"/><path class="cls-1" d="M298.4,119.6h9.7l6.5,21.7,16-21.7h10l-6.9,45.8H323.5l4.5-29.1-12.8,17h-5.3L304,136.2l-6.7,29.2h-9.8Z"/><path class="cls-1" d="M360.8,132.1a13.5,13.5,0,0,1,5.9,1.2,12.8,12.8,0,0,1,4.1,3,13.6,13.6,0,0,1,2.5,4.4,17,17,0,0,1,.8,5.1c0,1.1-.1,2.2-.2,3.2s-.4,2.1-.7,3.2H352a6,6,0,0,0,2.1,4.8,7.6,7.6,0,0,0,5.1,1.9,11.4,11.4,0,0,0,4.6-.9,15.9,15.9,0,0,0,4.1-2.1l3.8,6.3a28.4,28.4,0,0,1-6.3,3.1,21.9,21.9,0,0,1-7.5,1.2,18.5,18.5,0,0,1-5.8-.9,13.6,13.6,0,0,1-4.9-2.6,12.5,12.5,0,0,1-3.3-4.5,16,16,0,0,1-1.2-6.5,22.8,22.8,0,0,1,1.3-8,19.4,19.4,0,0,1,3.8-6.4,16.7,16.7,0,0,1,5.8-4A17.2,17.2,0,0,1,360.8,132.1Zm4.4,13.9a1.7,1.7,0,0,0,.1-.7v-.6a4.9,4.9,0,0,0-1.4-3.7,5.3,5.3,0,0,0-3.8-1.3,7.5,7.5,0,0,0-4.7,1.5,7.8,7.8,0,0,0-2.9,4.8Z"/><g class="cls-2"><rect class="cls-1" x="136.3" y="34" width="20" height="60"/></g><g class="cls-2"><rect class="cls-1" x="216.3" y="34" width="20" height="60"/></g><g class="cls-2"><circle class="cls-1" cx="146.3" cy="13" r="13"/></g><g class="cls-2"><circle class="cls-1" cx="226.3" cy="13" r="13"/></g><g class="cls-2"><path class="cls-1" d="M186.3,64a30,30,0,0,1-30-30h-20a50,50,0,0,0,100,0h-20A30,30,0,0,1,186.3,64Z"/></g><g class="cls-3"><path class="cls-1" d="M202.9,73.4a9.8,9.8,0,0,0-11.5-9.8,40.6,40.6,0,0,1-5.1.4,30,30,0,0,1-30-30h-20a50,50,0,0,0,50,50,46.8,46.8,0,0,0,8.4-.7,9.8,9.8,0,0,0,8.2-9.9Z"/></g></g></g></svg>