<svg xmlns="http://www.w3.org/2000/svg" viewBox="0 0 620.4 91.7"><defs><style>.cls-1{fill:#ed4f66;}.cls-2{fill:#212020;}</style></defs><g id="图层_2" data-name="图层 2"><g id="图层_1-2" data-name="图层 1"><polygon class="cls-1" points="70.1 70.4 83.5 1 99.5 1 86.1 70.4 70.1 70.4"/><path class="cls-1" d="M98.3,2,85.2,69.4H71.3L84.3,2h14m2.4-2h-18l-.3,1.6L69.3,69l-.4,2.4h18l.3-1.6,13-67.4.5-2.4Z"/><path class="cls-1" d="M119.7,72a22.8,22.8,0,0,1-8.7-1.6,23.6,23.6,0,0,1-7-4.6,22.3,22.3,0,0,1-6.4-15.9,32.4,32.4,0,0,1,2.3-12,33.8,33.8,0,0,1,6.3-9.7,29.7,29.7,0,0,1,9.3-6.4,27.8,27.8,0,0,1,11.4-2.4,24.8,24.8,0,0,1,8.6,1.6,21,21,0,0,1,7,4.7,22.2,22.2,0,0,1,4.7,6.9,23.5,23.5,0,0,1,1.7,8.9,33.7,33.7,0,0,1-2.2,12,28.2,28.2,0,0,1-15.3,16.2A29.8,29.8,0,0,1,119.7,72Zm5.2-38.3a10.4,10.4,0,0,0-4.2,1,12,12,0,0,0-3.8,3,16.8,16.8,0,0,0-2.7,4.5,15.7,15.7,0,0,0-1,5.8,10.9,10.9,0,0,0,2.1,7.1c1.3,1.8,3.3,2.6,6,2.6a10.8,10.8,0,0,0,4.3-1,14.3,14.3,0,0,0,3.7-2.9,14.8,14.8,0,0,0,2.8-4.5,15.9,15.9,0,0,0,1-5.9,11.5,11.5,0,0,0-2-7.1A7.5,7.5,0,0,0,124.9,33.7Z"/><path class="cls-1" d="M126.9,20.4a20.3,20.3,0,0,1,8.2,1.6,19.1,19.1,0,0,1,6.7,4.4,18.7,18.7,0,0,1,4.4,6.6,21.5,21.5,0,0,1,1.7,8.5,31.1,31.1,0,0,1-2.1,11.6,29.1,29.1,0,0,1-5.8,9.4,27.3,27.3,0,0,1-9,6.2A27.8,27.8,0,0,1,119.7,71a20.8,20.8,0,0,1-8.3-1.6,19.1,19.1,0,0,1-6.7-4.4,19.8,19.8,0,0,1-4.5-6.7,21.3,21.3,0,0,1-1.6-8.4,29.9,29.9,0,0,1,2.2-11.6,32,32,0,0,1,6.2-9.4,27.9,27.9,0,0,1,8.9-6.2,27.4,27.4,0,0,1,11-2.3m-5.6,38.3a11.2,11.2,0,0,0,4.7-1.1,13.8,13.8,0,0,0,4.1-3.2,14.3,14.3,0,0,0,2.9-4.8,15.2,15.2,0,0,0,1.1-6.2c0-3.2-.7-5.8-2.2-7.7s-3.9-3-7-3a11.5,11.5,0,0,0-4.7,1.1,15.2,15.2,0,0,0-4.1,3.2,15.7,15.7,0,0,0-2.8,4.9,17,17,0,0,0-1.1,6.1,12.7,12.7,0,0,0,2.3,7.8,8.2,8.2,0,0,0,6.8,2.9m5.6-40.3a29.6,29.6,0,0,0-11.8,2.4,31,31,0,0,0-9.6,6.8,32.1,32.1,0,0,0-8.9,22.3,25.1,25.1,0,0,0,1.7,9.2,22.5,22.5,0,0,0,12.3,12.2,24.9,24.9,0,0,0,9.1,1.7,30.4,30.4,0,0,0,12.1-2.4,28.9,28.9,0,0,0,9.6-6.8,31,31,0,0,0,6.3-9.9,35.9,35.9,0,0,0,2.2-12.4,23.4,23.4,0,0,0-6.7-16.6,22.8,22.8,0,0,0-16.3-6.5Zm-5.6,38.3c-2.4,0-4.1-.7-5.2-2.2a10.1,10.1,0,0,1-1.9-6.5,15.3,15.3,0,0,1,.9-5.4,18,18,0,0,1,2.5-4.3,14.9,14.9,0,0,1,3.5-2.7,8.8,8.8,0,0,1,3.8-.9c2.5,0,4.2.7,5.4,2.2a10.7,10.7,0,0,1,1.8,6.5,15.5,15.5,0,0,1-.9,5.5,17.5,17.5,0,0,1-2.6,4.2,10,10,0,0,1-3.5,2.7,8.5,8.5,0,0,1-3.8.9Z"/><path class="cls-1" d="M173.2,72a50.7,50.7,0,0,1-21.3-4.4l-.7-.4L164,1h16l-4.4,22.4a16.4,16.4,0,0,1,4.1-2.2,21.5,21.5,0,0,1,7.7-1.2,14.9,14.9,0,0,1,6.6,1.5,17.2,17.2,0,0,1,5.5,4.2,20.9,20.9,0,0,1,3.6,6.4,23.3,23.3,0,0,1,1.3,8.1,33.4,33.4,0,0,1-2.5,13.4,31.3,31.3,0,0,1-6.9,10,30.8,30.8,0,0,1-10,6.3A33.7,33.7,0,0,1,173.2,72ZM169,57.5a9.5,9.5,0,0,0,2.1.4l3,.2a13.2,13.2,0,0,0,5.7-1.2,13.4,13.4,0,0,0,4.2-3.2,15.6,15.6,0,0,0,2.7-5.1,22.8,22.8,0,0,0,1-6.6,10.1,10.1,0,0,0-1.6-5.7,5.7,5.7,0,0,0-4.8-2,8,8,0,0,0-6.4,2.7,14.2,14.2,0,0,0-3.2,7Z"/><path class="cls-1" d="M178.8,2l-4.7,23.9a19.6,19.6,0,0,1,5.9-3.8,22.6,22.6,0,0,1,7.4-1.1,14.4,14.4,0,0,1,6.2,1.4,15.4,15.4,0,0,1,5.1,4,16.8,16.8,0,0,1,3.4,6,22,22,0,0,1,1.3,7.8,31.7,31.7,0,0,1-2.5,13,28.8,28.8,0,0,1-6.6,9.7,27.8,27.8,0,0,1-9.7,6A31.2,31.2,0,0,1,173.2,71a48.8,48.8,0,0,1-20.9-4.3L164.8,2h14m-4.7,57.1a13.6,13.6,0,0,0,6.1-1.3,13.1,13.1,0,0,0,4.6-3.5,17.4,17.4,0,0,0,2.9-5.4,25,25,0,0,0,1-6.9,10.1,10.1,0,0,0-1.8-6.2c-1.2-1.7-3.1-2.5-5.6-2.5a8.9,8.9,0,0,0-7.1,3,16.3,16.3,0,0,0-3.5,7.5l-2.8,14.4a12.5,12.5,0,0,0,3.1.7l3.1.2M181.2,0h-18l-.3,1.6L150.3,66.3l-.3,1.5,1.5.7A50.7,50.7,0,0,0,173.2,73a32.9,32.9,0,0,0,12.1-2.2,29.1,29.1,0,0,0,10.3-6.5A31.8,31.8,0,0,0,202.8,54a35.7,35.7,0,0,0,2.6-13.8,25.1,25.1,0,0,0-1.4-8.4,19.9,19.9,0,0,0-3.8-6.7,17.8,17.8,0,0,0-5.7-4.5,17.1,17.1,0,0,0-7.1-1.6,23.9,23.9,0,0,0-8.1,1.2L177,21.3l3.7-18.9.5-2.4Zm-11,56.8,2.4-12.6a15,15,0,0,1,3.1-6.6,6.9,6.9,0,0,1,5.6-2.3,4.8,4.8,0,0,1,4,1.6,8.8,8.8,0,0,1,1.4,5.1,20.8,20.8,0,0,1-.9,6.3,14.3,14.3,0,0,1-2.6,4.7,9.7,9.7,0,0,1-3.9,3,12.4,12.4,0,0,1-5.2,1.1l-2.9-.2Z"/><path class="cls-2" d="M263,33.7h25.7l-5.1,29a46,46,0,0,1-13.4,6.9,49.4,49.4,0,0,1-16.3,2.5,36,36,0,0,1-14.2-2.6,24.3,24.3,0,0,1-9.7-7.1,24.5,24.5,0,0,1-4.9-11,39.9,39.9,0,0,1,.1-14.2,43.5,43.5,0,0,1,14-25,43.2,43.2,0,0,1,12.3-7.5A38.6,38.6,0,0,1,266,2c6,0,11.2,1.1,15.3,3.4a23.8,23.8,0,0,1,9.8,9.3l-12,9.7a23.3,23.3,0,0,0-5.9-6.2c-2.3-1.6-5.3-2.4-9.1-2.4a21.9,21.9,0,0,0-8.5,1.7,25.2,25.2,0,0,0-6.9,4.6,26,26,0,0,0-5,6.8,30.1,30.1,0,0,0-2.8,8.3,25.9,25.9,0,0,0,0,8.8,14.3,14.3,0,0,0,3,6.6,14.8,14.8,0,0,0,5.6,4.3,19.2,19.2,0,0,0,7.7,1.5,25.7,25.7,0,0,0,7.5-1,20.2,20.2,0,0,0,6.5-3l1.4-8.4H260.8Z"/><path class="cls-2" d="M321.2,66.1a19.6,19.6,0,0,1-6.9,4.3,23.2,23.2,0,0,1-8.4,1.5,17.9,17.9,0,0,1-5.1-.7,13.1,13.1,0,0,1-4.7-2.4,9.5,9.5,0,0,1-3.1-4.4,13.4,13.4,0,0,1-.3-7,16.3,16.3,0,0,1,2.9-7.3,18.9,18.9,0,0,1,5.5-5.4,25.9,25.9,0,0,1,7.4-3.2,31.7,31.7,0,0,1,8.8-1.1h5a11.1,11.1,0,0,1,3.3.3l.2-1a6.1,6.1,0,0,0-.2-3.1,6.5,6.5,0,0,0-1.6-2.1,6.6,6.6,0,0,0-2.7-1.2A16.6,16.6,0,0,0,318,33a24.5,24.5,0,0,0-8.2,1.2,31.4,31.4,0,0,0-5.8,2.7l-4.4-8.8,3.8-2.2a33.1,33.1,0,0,1,4.9-2,32.3,32.3,0,0,1,6.1-1.4,42.2,42.2,0,0,1,7.5-.6c7.2,0,12.1,1.9,14.8,5.8s3.6,9,2.4,15.5l-4.8,27.3H320.8ZM324,49.8l-1.8-.3H319c-4,0-6.9.5-8.8,1.7a6.7,6.7,0,0,0-3.4,4.8c-.6,3.8,1.3,5.8,6,5.8a10.7,10.7,0,0,0,3.5-.6,13.3,13.3,0,0,0,3.2-1.5,11.4,11.4,0,0,0,2.4-2.5,8.5,8.5,0,0,0,1.5-3.5Z"/><path class="cls-2" d="M354.5,34.8h-7.4l2-11.3h7.4L359,9.3h14.4l-2.5,14.2H383l-2,11.3H368.9l-3.2,18.6c-.4,2.2-.3,4,.4,5.2s2,1.9,3.9,1.9a9.3,9.3,0,0,0,3.9-.8,35.9,35.9,0,0,0,3.4-1.7l4.2,8.8c-5.2,3.6-10.4,5.4-15.8,5.4a18.9,18.9,0,0,1-8.1-1.5,10.6,10.6,0,0,1-4.8-4,11.9,11.9,0,0,1-1.9-6.1,32.1,32.1,0,0,1,.5-8Z"/><path class="cls-2" d="M429.8,65.4,427.1,67a23.5,23.5,0,0,1-4.5,2.3,44.4,44.4,0,0,1-6.4,1.9,34.9,34.9,0,0,1-8.2.9,26.2,26.2,0,0,1-10.5-1.9,17.5,17.5,0,0,1-7.2-5.1,16.9,16.9,0,0,1-3.7-8,29.1,29.1,0,0,1,0-10.2,30.1,30.1,0,0,1,3.4-9.5,29.8,29.8,0,0,1,6.1-8,29.2,29.2,0,0,1,8.6-5.4,26.4,26.4,0,0,1,10.6-2.1,21.3,21.3,0,0,1,9.6,2,16.3,16.3,0,0,1,6.3,5.6,20.5,20.5,0,0,1,3,8.5,37.3,37.3,0,0,1-.5,10.9l-.4,2.4H399.9a7.2,7.2,0,0,0,2.2,6.6c1.8,1.9,4.6,2.9,8.4,2.9a23.2,23.2,0,0,0,9.4-1.7,40.8,40.8,0,0,0,5.6-2.8Zm-8.5-23.3a8.1,8.1,0,0,0,0-3.1,10.8,10.8,0,0,0-1.3-2.9,9.7,9.7,0,0,0-2.7-2.1,8.3,8.3,0,0,0-4.1-.9,11.4,11.4,0,0,0-4.6.9,17.1,17.1,0,0,0-3.5,2.1,12.8,12.8,0,0,0-2.4,2.9,9.9,9.9,0,0,0-1.2,3.1Z"/><path class="cls-2" d="M440.2,23.5H455l2.9,30.2,14.5-30.2h11.5l3.9,30.2,13.5-30.2h14.5l-24.4,47h-13l-4.2-26.2L460.9,70.5H448.1Z"/><path class="cls-2" d="M541.3,66.1a20.6,20.6,0,0,1-6.9,4.3,23.2,23.2,0,0,1-8.4,1.5,17.9,17.9,0,0,1-5.1-.7,13.1,13.1,0,0,1-4.7-2.4,9.5,9.5,0,0,1-3.1-4.4,13.4,13.4,0,0,1-.3-7,16.3,16.3,0,0,1,2.9-7.3,18.9,18.9,0,0,1,5.5-5.4,25.9,25.9,0,0,1,7.4-3.2,31.7,31.7,0,0,1,8.8-1.1h5a11.1,11.1,0,0,1,3.3.3l.2-1a6.1,6.1,0,0,0-.2-3.1,6.5,6.5,0,0,0-1.6-2.1,6.6,6.6,0,0,0-2.7-1.2,16.6,16.6,0,0,0-3.3-.4,24.5,24.5,0,0,0-8.2,1.2,31.4,31.4,0,0,0-5.8,2.7l-4.4-8.8,3.8-2.2a33.1,33.1,0,0,1,4.9-2,32.3,32.3,0,0,1,6.1-1.4,42.2,42.2,0,0,1,7.5-.6c7.2,0,12.1,1.9,14.8,5.8s3.6,9,2.4,15.5l-4.8,27.3H540.9Zm2.8-16.3-1.8-.3h-3.2c-4,0-6.9.5-8.8,1.7a6.7,6.7,0,0,0-3.4,4.8c-.6,3.8,1.3,5.8,6,5.8a10.7,10.7,0,0,0,3.5-.6,11.1,11.1,0,0,0,3.1-1.5,9.9,9.9,0,0,0,2.5-2.5,8.5,8.5,0,0,0,1.5-3.5Z"/><path class="cls-2" d="M564.1,77.9a14.3,14.3,0,0,0,2.4,1.6,6,6,0,0,0,3,.7,6.8,6.8,0,0,0,4.1-1.4,18.4,18.4,0,0,0,3.8-5l2.1-3.8L566.3,23.5h16.4l6.5,29.7L605,23.5h15.4L592.9,70.2,588.4,78a50.8,50.8,0,0,1-5,6.9,25.4,25.4,0,0,1-6.4,4.9,17.8,17.8,0,0,1-8.5,1.9,20.3,20.3,0,0,1-6.8-1,15.7,15.7,0,0,1-5.2-2.9Z"/><polygon class="cls-1" points="25 69.3 0 69.3 13.9 0 38.8 0 25 69.3"/><path class="cls-1" d="M47.5,69.3c11.4,0,20.7-7.2,20.7-16.1h0c0-9-9.3-16.2-20.7-16.2H37.3L31.1,69.3"/><path class="cls-1" d="M47.5,0H44.6L38.2,32.4h9.3c11.4,0,20.7-7.3,20.7-16.2S58.9,0,47.5,0Z"/></g></g></svg>