<svg xmlns="http://www.w3.org/2000/svg" viewBox="0 0 482.5 86"><defs><style>.cls-1{fill:#2d51e8;}.cls-2,.cls-3{fill:#fff;}.cls-2{opacity:0.8;}.cls-3{opacity:0.5;}</style></defs><g id="图层_2" data-name="图层 2"><g id="图层_1-2" data-name="图层 1"><path d="M117.2,18.1h10l-7.1,36.6h21l-1.7,9.1h-31Z"/><path d="M151,31.6h9.4l-6.2,32.2h-9.5Zm2.2-13.5h10.2l-1.7,8.7H151.5Z"/><path d="M168.3,31.6h9l-.4,3.5a15.2,15.2,0,0,1,4.6-3.3,14.9,14.9,0,0,1,5.4-.9,8.7,8.7,0,0,1,6.9,2.7q2.4,2.5,2.4,7.2c0,.5-.1,1.1-.1,1.6a7.8,7.8,0,0,1-.2,1.6l-3.8,19.8h-9.6l3.5-18a7.1,7.1,0,0,0,.2-2,5.4,5.4,0,0,0-.9-3.3,3.9,3.9,0,0,0-3.1-1.3,6.9,6.9,0,0,0-2.9.7,8.7,8.7,0,0,0-2.2,1.7,11,11,0,0,0-1.5,2.6,10.6,10.6,0,0,0-1,3l-3.2,16.6H162Z"/><path d="M219,30.5a13.8,13.8,0,0,1,5.9,1.2,12.7,12.7,0,0,1,4.1,3.1,13.1,13.1,0,0,1,2.5,4.3,17.5,17.5,0,0,1,.7,5.1,16.7,16.7,0,0,1-.2,3.2,18,18,0,0,1-.6,3.2H210.2a6,6,0,0,0,2.1,4.8,7,7,0,0,0,5.1,1.9,13.4,13.4,0,0,0,4.6-.8,23.2,23.2,0,0,0,4.1-2.2l3.7,6.3a24,24,0,0,1-6.2,3.1,21.9,21.9,0,0,1-7.5,1.2,18.5,18.5,0,0,1-5.8-.9,12.2,12.2,0,0,1-4.9-2.6,12.5,12.5,0,0,1-3.3-4.5,14.5,14.5,0,0,1-1.3-6.5,22.8,22.8,0,0,1,1.4-8,18,18,0,0,1,3.8-6.3,15.8,15.8,0,0,1,5.8-4.1A17.2,17.2,0,0,1,219,30.5Zm4.4,14a2.5,2.5,0,0,0,.1-.8v-.5a4.6,4.6,0,0,0-1.4-3.7,5,5,0,0,0-3.8-1.4,7.5,7.5,0,0,0-4.7,1.5,9,9,0,0,0-3,4.9Z"/><path d="M241.6,31.6h9.1l-.5,4.1a14.1,14.1,0,0,1,4-3.3,9.9,9.9,0,0,1,5.2-1.4l2.2.2a13.9,13.9,0,0,1,1.9.6l-3,8.5-1.8-.5h-1.8a7.8,7.8,0,0,0-6,2.6,12.9,12.9,0,0,0-3.2,6.5l-2.8,15h-9.5Z"/><path d="M280.1,60.8a12,12,0,0,1-4.3,3,13.9,13.9,0,0,1-5,1,8.9,8.9,0,0,1-3.6-.7,7.9,7.9,0,0,1-2.9-1.8,8.8,8.8,0,0,1-2-2.9,9.4,9.4,0,0,1-.7-3.9,11.8,11.8,0,0,1,1.1-5,10,10,0,0,1,3.1-3.9,15.8,15.8,0,0,1,5-2.6,27.1,27.1,0,0,1,6.6-.8h3l3,.3v-.7a1.5,1.5,0,0,0,.1-.6,1.3,1.3,0,0,0,.1-.6,2.9,2.9,0,0,0-1.8-2.9,9.8,9.8,0,0,0-4-.8,14.1,14.1,0,0,0-5,.8,22.2,22.2,0,0,0-3.8,1.8l-3.4-5.9a29.5,29.5,0,0,1,5.9-2.9,26.5,26.5,0,0,1,8.4-1.3c4,0,7.1,1,9.3,2.9s3.2,4.7,3.2,8.4a9.2,9.2,0,0,1-.1,1.6c-.1.6-.1,1.2-.2,1.7l-3.7,18.7h-8.7Zm2.1-11.1-1.7-.3h-2.4c-2.5,0-4.3.4-5.5,1.3a4.2,4.2,0,0,0-1.8,3.5,3.3,3.3,0,0,0,1,2.7,4.1,4.1,0,0,0,2.8.9l2.2-.3a10,10,0,0,0,2.1-1,7.7,7.7,0,0,0,1.8-1.8,6.3,6.3,0,0,0,1-2.5Z"/><path class="cls-1" d="M317.5,18.1h9.6l6.6,21.6,15.9-21.6h10l-6.8,45.7H342.5L347,34.7l-12.7,17H329l-6-17.1-6.7,29.2h-9.7Z"/><path class="cls-1" d="M379.9,30.5a13.1,13.1,0,0,1,5.8,1.2,12.1,12.1,0,0,1,4.2,3.1,11.4,11.4,0,0,1,2.4,4.3,17.5,17.5,0,0,1,.8,5.1c0,1.1-.1,2.2-.2,3.2a18,18,0,0,1-.6,3.2H371a6,6,0,0,0,2.1,4.8,7.3,7.3,0,0,0,5.2,1.9,13.9,13.9,0,0,0,4.6-.8,19.4,19.4,0,0,0,4-2.2l3.8,6.3a24,24,0,0,1-6.2,3.1,22.7,22.7,0,0,1-7.5,1.2,19.2,19.2,0,0,1-5.9-.9,12.5,12.5,0,0,1-4.8-2.6,14.1,14.1,0,0,1-3.4-4.5,16,16,0,0,1-1.2-6.5,22.8,22.8,0,0,1,1.4-8,18,18,0,0,1,3.8-6.3,15.4,15.4,0,0,1,5.7-4.1A18,18,0,0,1,379.9,30.5Zm4.4,14a2.5,2.5,0,0,0,.1-.8v-.5a5,5,0,0,0-1.4-3.7,5.2,5.2,0,0,0-3.9-1.4,7.8,7.8,0,0,0-4.7,1.5,9.5,9.5,0,0,0-2.9,4.9Z"/><path class="cls-1" d="M406.8,18.1h9.7L423,39.7l16-21.6h10l-6.9,45.7H431.9l4.5-29.1-12.8,17h-5.3l-5.9-17.1-6.7,29.2h-9.8Z"/><path class="cls-1" d="M469.2,30.5a13.5,13.5,0,0,1,5.9,1.2,11.7,11.7,0,0,1,4.1,3.1,13.1,13.1,0,0,1,2.5,4.3,17.5,17.5,0,0,1,.8,5.1c0,1.1-.1,2.2-.2,3.2s-.4,2.1-.7,3.2H460.4a6,6,0,0,0,2.1,4.8,7.2,7.2,0,0,0,5.1,1.9,13.4,13.4,0,0,0,4.6-.8,20.2,20.2,0,0,0,4.1-2.2l3.8,6.3a24.6,24.6,0,0,1-6.3,3.1,21.9,21.9,0,0,1-7.5,1.2,18.5,18.5,0,0,1-5.8-.9,12.2,12.2,0,0,1-4.9-2.6,12.5,12.5,0,0,1-3.3-4.5,16,16,0,0,1-1.2-6.5,22.8,22.8,0,0,1,1.3-8,18,18,0,0,1,3.8-6.3A15.8,15.8,0,0,1,462,32,17.2,17.2,0,0,1,469.2,30.5Zm4.4,14a2.5,2.5,0,0,0,.1-.8v-.5a4.6,4.6,0,0,0-1.4-3.7,5,5,0,0,0-3.8-1.4,7.5,7.5,0,0,0-4.7,1.5,8.8,8.8,0,0,0-2.9,4.9Z"/><rect class="cls-1" width="86" height="86" rx="9.4"/><rect class="cls-2" x="17.4" y="36.4" width="10.2" height="30.68"/><rect class="cls-2" x="58.3" y="36.4" width="10.2" height="30.68"/><circle class="cls-2" cx="22.5" cy="25.6" r="6.6"/><circle class="cls-2" cx="63.5" cy="25.6" r="6.6"/><path class="cls-2" d="M43,51.7A15.3,15.3,0,0,1,27.7,36.4H17.4a25.6,25.6,0,0,0,51.2,0H58.3A15.3,15.3,0,0,1,43,51.7Z"/><path class="cls-3" d="M51.5,56.5a5,5,0,0,0-5.9-5l-2.6.2A15.3,15.3,0,0,1,27.7,36.4H17.4A25.6,25.6,0,0,0,43,61.9a30,30,0,0,0,4.3-.3,5.2,5.2,0,0,0,4.2-5.1Z"/></g></g></svg>