<svg t="1730951072406" class="icon" viewBox="0 0 1024 1024" version="1.1" xmlns="http://www.w3.org/2000/svg" p-id="11359" width="200" height="200"><path d="M826.7 644.4a341.4 341.4 0 0 0-484.1-428.8l-42.3-74.1a426.5 426.5 0 0 1 425 1c191.6 110.6 265 347.4 175.7 544.9l57.3 33-177.7 94.5-7-201.1 53.2 30.7zM197.3 379.6a341.4 341.4 0 0 0 484.1 428.8l42.3 74.1a426.5 426.5 0 0 1-425-1C107.1 770.9 33.7 534.1 123 336.6l-57.3-32.9 177.7-94.5 7 201.1-53.2-30.7z m375 253.1L451.6 512 330.9 632.7l-60.3-60.3 181-181L572.3 512 693 391.3l60.3 60.3-181 181z" p-id="11360" fill="#bfbfbf"></path></svg>
