<svg width="479" height="123" viewBox="0 0 479 123" fill="none" xmlns="http://www.w3.org/2000/svg">
<path d="M47.3482 41.7H83.9482C84.7158 41.7143 85.4611 41.9609 86.0859 42.4072C86.7107 42.8534 87.1856 43.4785 87.4482 44.2L91.3482 57.7L115.248 30.7C116.148 29.7 115.648 27.9 114.148 26.9L74.5481 0L78.4482 13.4C78.5676 13.6989 78.6091 14.0233 78.5688 14.3427C78.5285 14.6621 78.4077 14.966 78.2178 15.2259C78.0278 15.4858 77.775 15.6932 77.4829 15.8286C77.1909 15.964 76.8692 16.023 76.5481 16L20.8482 16.2C14.8482 16.2 11.2482 20.8 12.9482 26.4L24.1482 64.8H51.3482L45.3482 44.4C45.2305 44.0872 45.1931 43.75 45.2394 43.419C45.2856 43.0881 45.4141 42.774 45.613 42.5054C45.8119 42.2369 46.0749 42.0225 46.378 41.8818C46.6811 41.7411 47.0147 41.6786 47.3482 41.7Z" fill="#41C2A5"/>
<path d="M68.3482 81.2H31.6482C30.8859 81.1583 30.1538 80.888 29.5473 80.4242C28.9409 79.9605 28.4882 79.3248 28.2482 78.6L24.2482 65.2L0.448222 92.2C-0.451778 93.2 0.0482202 95 1.54822 96L41.1482 122.8L37.2482 109.3C37.1208 109.007 37.0738 108.685 37.1121 108.367C37.1503 108.05 37.2725 107.748 37.466 107.494C37.6595 107.239 37.9174 107.04 38.213 106.919C38.5087 106.797 38.8315 106.756 39.1482 106.8L94.8482 106.6C100.848 106.6 104.348 102 102.748 96.3L91.5482 58H64.3482L70.3482 78.5C70.4659 78.8128 70.5033 79.15 70.457 79.481C70.4107 79.8119 70.2823 80.126 70.0834 80.3946C69.8845 80.6631 69.6214 80.8775 69.3183 81.0182C69.0152 81.1589 68.6817 81.2214 68.3482 81.2Z" fill="#003776"/>
<path d="M130.8 32.2107H140.8L133.7 68.9107H154.7L153 77.9107H122L130.8 32.2107Z" fill="black"/>
<path d="M164.6 45.8108H174L167.8 77.9108H158.3L164.6 45.8108ZM166.8 32.3108H177L175.3 41.0108H165.1L166.8 32.3108Z" fill="black"/>
<path d="M181.9 45.8107H190.9L190.5 49.3107C191.758 47.8707 193.333 46.7412 195.1 46.0107C196.808 45.2966 198.649 44.9557 200.5 45.0107C201.778 44.9251 203.059 45.1227 204.252 45.5894C205.445 46.0561 206.52 46.7805 207.4 47.7107C209.078 49.7227 209.936 52.294 209.8 54.9107C209.8 55.4107 209.7 56.0107 209.7 56.5107C209.683 57.082 209.616 57.6508 209.5 58.2107L205.7 77.9107H196.1L199.6 59.9107C199.761 59.2569 199.828 58.5834 199.8 57.9107C199.865 56.7422 199.55 55.5841 198.9 54.6107C198.504 54.1946 198.02 53.8713 197.484 53.6639C196.948 53.4564 196.373 53.3699 195.8 53.4107C194.801 53.3952 193.811 53.6 192.9 54.0107C192.1 54.5244 191.362 55.1283 190.7 55.8107C190.085 56.5694 189.58 57.411 189.2 58.3107C188.734 59.2613 188.397 60.2703 188.2 61.3107L185 77.9107H175.6L181.9 45.8107Z" fill="black"/>
<path d="M232.6 44.7107C234.62 44.6895 236.624 45.0631 238.5 45.8107C240.064 46.5538 241.459 47.6087 242.6 48.9107C243.7 50.1712 244.549 51.6309 245.1 53.2107C245.578 54.8681 245.814 56.5859 245.8 58.3107C245.836 59.4145 245.77 60.5194 245.6 61.6107C245.488 62.692 245.288 63.7623 245 64.8107H223.8C223.785 65.7146 223.965 66.6111 224.327 67.4393C224.69 68.2676 225.226 69.0081 225.9 69.6107C227.312 70.8327 229.134 71.4757 231 71.4107C232.568 71.4153 234.125 71.1445 235.6 70.6107C237.016 70.0111 238.386 69.3092 239.7 68.5107L243.4 74.7107C241.475 76.0317 239.392 77.1067 237.2 77.9107C234.772 78.6611 232.242 79.0321 229.7 79.0107C227.74 79.0036 225.789 78.7346 223.9 78.2107C222.098 77.6573 220.43 76.7382 219 75.5107C217.575 74.2785 216.447 72.7402 215.7 71.0107C214.772 69.0085 214.327 66.8164 214.4 64.6107C214.374 61.8484 214.849 59.1042 215.8 56.5107C216.666 54.1938 217.955 52.0576 219.6 50.2107C221.223 48.4509 223.2 47.0537 225.4 46.1107C227.686 45.1783 230.132 44.7027 232.6 44.7107ZM237 58.6107C237.082 58.3525 237.116 58.0813 237.1 57.8107V57.3107C237.157 56.6287 237.06 55.9426 236.818 55.3025C236.576 54.6624 236.194 54.0844 235.7 53.6107C234.663 52.6688 233.3 52.1667 231.9 52.2107C230.192 52.161 228.523 52.7291 227.2 53.8107C225.668 55.0098 224.607 56.7086 224.2 58.6107H237Z" fill="black"/>
<path d="M255.2 45.8108H264.3L263.8 49.8108C264.945 48.5006 266.296 47.3859 267.8 46.5108C269.379 45.6026 271.18 45.1524 273 45.2108C273.739 45.1727 274.48 45.24 275.2 45.4107L277.1 45.9107L274.1 54.5108C273.538 54.2302 272.927 54.0604 272.3 54.0108H270.5C269.378 53.9648 268.26 54.1648 267.223 54.5966C266.187 55.0285 265.257 55.6818 264.5 56.5108C262.834 58.3273 261.724 60.5829 261.3 63.0108L258.5 78.0108H249L255.2 45.8108Z" fill="black"/>
<path d="M293.7 74.9107C292.548 76.2313 291.115 77.2764 289.505 77.9687C287.895 78.661 286.151 78.983 284.4 78.9107C283.175 78.9145 281.958 78.7117 280.8 78.3108C279.714 77.9292 278.724 77.3149 277.9 76.5108C277.044 75.6508 276.365 74.6316 275.9 73.5108C275.392 72.2753 275.154 70.9457 275.2 69.6108C275.196 67.8837 275.572 66.1768 276.3 64.6108C277.039 63.1016 278.096 61.7709 279.4 60.7107C280.903 59.5832 282.596 58.7362 284.4 58.2107C286.544 57.5907 288.768 57.2875 291 57.3108H294L297 57.6108V56.9107C297.08 56.7215 297.115 56.5158 297.1 56.3108C297.172 56.1542 297.206 55.983 297.2 55.8108C297.251 55.1853 297.106 54.5594 296.783 54.0212C296.46 53.483 295.976 53.0597 295.4 52.8108C294.138 52.2665 292.775 51.9939 291.4 52.0108C289.699 51.9735 288.005 52.2446 286.4 52.8108C285.095 53.3633 283.825 53.9979 282.6 54.7107L279.2 48.8108C281.007 47.5487 282.997 46.5707 285.1 45.9107C287.8 44.979 290.645 44.5387 293.5 44.6108C297.5 44.6108 300.6 45.5108 302.8 47.5108C305 49.5108 306 52.2108 306 55.8108C306.014 56.3792 305.98 56.9478 305.9 57.5108C305.8 58.1108 305.8 58.6107 305.7 59.2107L302 77.8108H293.3L293.7 74.9107ZM295.8 63.8108L294.1 63.5108H291.7C289.764 63.3792 287.837 63.8697 286.2 64.9107C285.631 65.2963 285.167 65.819 284.853 66.4306C284.538 67.0423 284.382 67.7232 284.4 68.4107C284.352 68.8921 284.418 69.3779 284.592 69.8294C284.765 70.2809 285.042 70.6854 285.4 71.0108C286.19 71.6467 287.187 71.9673 288.2 71.9107L290.4 71.6108C291.153 71.4024 291.864 71.064 292.5 70.6108C293.194 70.1523 293.803 69.5771 294.3 68.9107C294.812 68.1237 295.153 67.2379 295.3 66.3108L295.8 63.8108Z" fill="black"/>
<path d="M325.8 64.9107C327.362 66.5123 329.189 67.8318 331.2 68.8107C333.17 69.7307 335.327 70.176 337.5 70.1107C339.323 70.2233 341.128 69.6925 342.6 68.6107C343.15 68.1614 343.596 67.5977 343.907 66.9588C344.218 66.3199 344.386 65.6211 344.4 64.9107C344.422 64.2222 344.285 63.538 344 62.9107C343.739 62.3119 343.366 61.7687 342.9 61.3107C342.197 60.7199 341.424 60.2162 340.6 59.8107L337 58.1107C333.926 57.033 331.126 55.2918 328.8 53.0107C326.927 50.7779 325.963 47.9219 326.1 45.0107C326.057 43.151 326.433 41.3054 327.2 39.6107C328.001 37.8865 329.16 36.3525 330.6 35.1107C332.195 33.7797 334.027 32.7619 336 32.1107C338.415 31.3028 340.955 30.9303 343.5 31.0107C346.552 30.9652 349.58 31.5437 352.4 32.7107C354.961 33.8831 357.219 35.6279 359 37.8107L352.6 43.7107C351.343 42.3556 349.853 41.2378 348.2 40.4107C346.567 39.6725 344.793 39.2972 343 39.3107C341.221 39.1759 339.451 39.6715 338 40.7107C337.502 41.1643 337.109 41.7218 336.85 42.3439C336.59 42.966 336.471 43.6374 336.5 44.3107C336.493 44.9237 336.595 45.5331 336.8 46.1107C337.144 46.6817 337.584 47.1891 338.1 47.6107L340.5 49.2107L344.4 50.9107C348.3 52.5107 351.1 54.3107 352.9 56.4107C354.638 58.4788 355.563 61.1098 355.5 63.8107C355.522 66.1189 355.045 68.4045 354.1 70.5107C353.212 72.3769 351.913 74.0178 350.3 75.3107C348.594 76.5959 346.66 77.546 344.6 78.1107C342.299 78.8068 339.904 79.1441 337.5 79.1107C334.095 79.1081 330.715 78.5334 327.5 77.4107C324.366 76.3088 321.55 74.4546 319.3 72.0107L325.8 64.9107Z" fill="#41C2A5"/>
<path d="M360.5 45.8108H370L371.5 66.8108L381.4 45.8108H389.1L391.1 66.8108L400.4 45.8108H410.4L393.5 77.9108H385.1L382.7 59.8108L373.2 77.9108H365L360.5 45.8108Z" fill="#41C2A5"/>
<path d="M427.1 74.9108C425.862 76.1912 424.406 77.2409 422.8 78.0108C421.168 78.6165 419.44 78.9214 417.7 78.9108C416.507 78.9149 415.323 78.7119 414.2 78.3108C413.088 77.9061 412.076 77.2685 411.231 76.4406C410.386 75.6128 409.728 74.6138 409.3 73.5108C408.792 72.2753 408.554 70.9458 408.6 69.6108C408.576 67.9054 408.942 66.2172 409.67 64.6748C410.398 63.1324 411.469 61.7766 412.8 60.7108C414.291 59.5653 415.989 58.7166 417.8 58.2108C419.941 57.576 422.167 57.2725 424.4 57.3108H427.4L430.4 57.6108V56.9108C430.4 56.7108 430.5 56.5108 430.5 56.3108V55.8108C430.575 55.1946 430.45 54.5707 430.144 54.0307C429.838 53.4907 429.367 53.0631 428.8 52.8108C427.534 52.2775 426.174 52.0054 424.8 52.0108C423.067 51.9847 421.342 52.2553 419.7 52.8108C418.4 53.4108 417.1 54.0108 415.9 54.7108L412.6 48.8108C414.396 47.53 416.389 46.5504 418.5 45.9108C421.167 44.9866 423.978 44.5464 426.8 44.6108C430.9 44.6108 434 45.5108 436.1 47.5108C438.2 49.5108 439.4 52.2108 439.4 55.8108C439.414 56.3792 439.38 56.9478 439.3 57.5108L439 59.2108L435.4 77.8108H426.6L427.1 74.9108ZM429.2 63.8108L427.5 63.5108H425.1C423.164 63.3792 421.237 63.8697 419.6 64.9108C419.018 65.2914 418.54 65.8104 418.209 66.4213C417.877 67.0321 417.702 67.7157 417.7 68.4108C417.672 68.8994 417.757 69.3879 417.948 69.8386C418.139 70.2894 418.43 70.6904 418.8 71.0108C419.59 71.6467 420.588 71.9674 421.6 71.9108L423.7 71.6108C424.492 71.425 425.239 71.0852 425.9 70.6108C427.359 69.5981 428.364 68.0548 428.7 66.3108L429.2 63.8108Z" fill="#41C2A5"/>
<path d="M449.2 45.8107H458.3L457.9 49.3107C459.027 47.9934 460.426 46.9358 462 46.2107C463.706 45.4875 465.549 45.1462 467.4 45.2107C468.849 45.1997 470.283 45.507 471.6 46.1107C472.928 46.7801 474.116 47.6965 475.1 48.8107C476.115 50.0223 476.895 51.4128 477.4 52.9107C478.015 54.6093 478.319 56.4044 478.3 58.2107C478.393 61.3214 477.849 64.4184 476.7 67.3107C475.734 69.7526 474.269 71.9663 472.4 73.8107C470.63 75.5311 468.517 76.8599 466.2 77.7107C463.854 78.5377 461.388 78.9768 458.9 79.0107C457.859 79.015 456.821 78.9145 455.8 78.7107C454.628 78.4295 453.489 78.0274 452.4 77.5107L449.7 91.6107H440.3L449.2 45.8107ZM454 69.8107C454.665 70.238 455.416 70.5114 456.2 70.6107C456.985 70.8084 457.791 70.9092 458.6 70.9107C460.026 70.8996 461.429 70.5572 462.7 69.9107C463.881 69.2787 464.932 68.4307 465.8 67.4107C466.647 66.2996 467.291 65.0468 467.7 63.7107C468.183 62.2948 468.42 60.8066 468.4 59.3107C468.492 57.7684 468.031 56.244 467.1 55.0107C466.631 54.5044 466.057 54.1075 465.417 53.8483C464.778 53.5891 464.089 53.4738 463.4 53.5107C462.474 53.4861 461.553 53.6507 460.694 53.9947C459.834 54.3386 459.053 54.8545 458.4 55.5107C456.884 57.0643 455.903 59.0612 455.6 61.2107L454 69.8107Z" fill="#41C2A5"/>
</svg>
