<svg t="1731324036782" class="icon" viewBox="0 0 1024 1024" version="1.1" xmlns="http://www.w3.org/2000/svg" p-id="1564" width="200" height="200"><path d="M337.951895 716.03803h-4.010033c-5.993719-1.983686-10.003751-9.982422-7.998735-15.997471 65.994898-207.967115 171.983472-341.919267 213.960834-391.916694 6.015049-4.010033 12.008768-4.010033 18.002487 0 4.010033 1.983686 13.992454 17.981157 18.002486 29.989924 2.005016-2.005016 5.993719-2.005016 10.003752 0 5.972389 2.005016 7.998735 10.003751 5.972389 15.99747-19.986173 43.982379-81.971038 177.955861-103.962228 347.934317-2.005016 5.993719-5.993719 12.008768-12.008768 12.008767h-1.983686a15.037622 15.037622 0 0 1-10.003751-14.013784c-2.005016 155.986001-105.988574 74.014963-113.987309 7.998736-2.005016 4.010033-5.993719 7.998735-11.987438 7.998735z" fill="#A44E3E" p-id="1565"></path><path d="M367.941819 588.079597c4.010033-7.998735 5.993719-15.99747 10.003752-22.01252 39.993676 23.996206 89.969774 52.002444 113.965979 65.994898q4.010033 2.005016 6.015049 4.010033c0 7.998735-2.005016 15.99747-4.010033 23.996205-35.983643-22.012519-85.981071-49.997427-125.974747-71.988616z m39.993676-83.997385c4.010033-7.998735 7.998735-13.992454 12.008768-21.991189 31.994941 19.986173 69.962271 41.998692 101.957211 59.979849-1.983686 7.998735-5.972389 15.99747-7.977405 23.996205-30.011254-17.981157-71.988617-41.977362-105.988574-61.984865z m45.987395-79.987352c4.010033-5.993719 10.003751-13.992454 14.013784-19.986173l81.971039 47.992411c-1.983686 7.998735-3.988703 15.99747-7.998736 23.996206a3422.008228 3422.008228 0 0 0-87.986087-52.002444z" fill="#944638" p-id="1566"></path><path d="M345.95063 536.077153q-2.005016 0-2.005016-2.005016c-4.010033 0-10.003751-3.988703-10.003752-7.998736-23.996206-99.973525-13.992454-175.972174 29.989925-225.948272 23.996206-28.006238 54.00746-44.003709 86.0024-52.002443-87.986087 5.993719-185.975926 65.994898-187.980942 65.994897 0 2.005016-3.988703 2.005016-5.993719 2.005017-2.005016 0-4.010033 0-7.998735-2.005017-4.010033-4.010033-4.010033-10.003751-2.005016-13.992454 39.993676-94.001136 91.99612-149.992282 155.986001-163.984736 57.974833-13.992454 115.970995 12.008768 155.964672 37.98866-53.98613-81.971038-217.970867-111.982293-219.954553-111.982293-6.015049-1.983686-10.003751-5.993719-10.003752-9.982422 0-6.015049 2.005016-12.008768 5.993719-14.013784C427.921668-5.810495 505.946664-11.825543 561.91648 20.169397c63.989882 35.983643 87.986087 109.977277 95.984823 161.958391 39.993676-27.984908 103.983558-57.974833 167.973439-43.982379 65.973568 13.992454 117.976012 73.993633 155.964671 175.972174 2.005016 5.993719 0 10.003751-3.988702 13.992455-2.005016 2.005016-6.015049 2.005016-7.998736 2.005016-2.005016 0-4.010033 0-6.015048-2.005016-1.983686-2.005016-139.967201-95.984822-235.952024-75.97732 45.987395 7.998735 101.978541 29.989925 135.978499 79.987352 35.983643 53.9648 35.983643 131.968466-4.010033 229.936975-1.983686 4.010033-5.972389 8.020065-11.987438 8.020065-5.993719-2.005016-10.003751-4.010033-10.003751-10.003752-2.005016-2.005016-27.984908-111.982293-85.981071-177.97719a158.652246 158.652246 0 0 1 23.996205 101.999871c-5.993719 61.984865-52.002444 121.964714-137.983514 175.972174-2.005016 0-3.988703 1.983686-5.993719 1.983687-4.010033 0-5.993719-1.983686-7.998735-3.988703-4.010033-4.010033-5.993719-7.998735-4.010033-13.992454 2.005016-2.005016 86.002401-207.967115-1.983686-283.965765-4.010033-3.988703-4.010033-11.987438 0-15.99747a10.57966 10.57966 0 0 1 15.99747-2.005016c5.993719 4.010033 9.982422 7.998735 13.992454 14.013784 7.998735-6.015049 18.002487-14.013784 23.996206-23.996206h-7.998735c-5.993719 0-12.008768-6.015049-10.003752-12.008768 0-7.998735 5.993719-11.987438 12.008768-11.987437 5.993719 0 11.987438 0 17.981157 1.983686h-1.983687c1.983686-5.993719 1.983686-13.992454 1.983687-19.986173 0-7.998735 0-13.992454-1.983687-20.007503h-18.002486c-5.993719-1.983686-12.008768-5.993719-12.008768-13.992454 0-5.993719 6.015049-10.003751 12.008768-10.003752h5.993719c-5.993719-9.982422-15.99747-17.981157-26.001222-23.996205q-7.998735 7.998735-13.992454 12.008767a9.363853 9.363853 0 0 1-15.997471 0 9.363853 9.363853 0 0 1 0-15.99747l4.010033-4.010032c-4.010033-1.983686-6.015049-1.983686-10.003752-1.983687-2.005016 0-5.993719 0-7.998735 1.983687v14.013784c0 5.972389-4.010033 11.987438-10.003751 11.987437h-2.005017c-5.972389 0-11.987438-5.993719-11.987438-11.987437v-7.998736a64.97106 64.97106 0 0 0-26.001221 19.986173h5.993718c7.998735 2.005016 12.008768 5.993719 12.008768 13.992455-2.005016 6.015049-7.998735 12.008768-13.992454 10.003751h-18.002487c-2.005016 7.998735-4.010033 15.99747-4.010032 26.001222 0 3.988703 0 10.003751 2.005016 15.99747h-2.005016c6.015049-2.005016 12.008768-2.005016 15.99747-2.005016h2.005017c5.993719 0 12.008768 5.993719 12.008767 12.008768 0 5.972389-6.015049 11.987438-12.008767 11.987438-111.982293 2.005016-191.969645 197.963364-193.974662 199.96838-1.983686 4.010033-5.972389 7.998735-9.982421 7.998735z m301.946921-179.960877c2.005016 3.988703 2.005016 3.988703 0 0z m-119.981028-49.997428h2.005016-2.005016z" fill="#00A23E" p-id="1567"></path><path d="M607.903875 370.10873c-44.003709 0-81.992368-36.004973-81.992368-79.987352 0-45.987395 38.00999-81.992368 81.992368-81.992368 45.987395 0 81.992368 36.004973 81.992368 81.992368 0 43.982379-36.004973 79.987352-81.992368 79.987352z" fill="#008839" p-id="1568"></path><path d="M757.874828 884.032799c-5.993719 0-10.003751-4.010033-10.003752-10.025081-1.983686-5.972389-1.983686-11.987438-3.988702-17.981157-21.991189-10.003751-37.98866-13.992454-53.986131-13.992454-22.012519 2.005016-36.004973 13.992454-49.997427 26.001222-18.002487 15.99747-33.999957 31.994941-77.982336 15.99747-7.998735-2.005016-15.99747-12.008768-23.996205-20.007503-12.008768-13.992454-26.001222-29.989925-47.992412-31.994941-20.007503 0-39.993676 10.003751-63.989881 33.999957l-7.998735 7.998735v2.005017c-4.010033-4.010033-6.015049-7.998735-12.008768-12.008768-23.996206-23.996206-45.987395-31.994941-69.983601-26.001222-20.007503 4.010033-36.004973 18.002487-49.997427 31.994941-27.984908 22.012519-43.982379 33.999957-65.994898 15.99747-31.994941-25.979892-53.9648-41.977362-79.987352-43.982378-13.992454 0-29.989925 3.988703-49.976098 11.987438-2.005016 7.998735-2.005016 14.013784-4.010032 20.007502 0 5.993719-3.988703 10.003751-10.003752 10.003752-5.972389 0-9.982422-6.015049-7.998735-12.008768 4.010033-49.997427 44.003709-97.989839 109.998607-131.968466 63.989882-33.999957 149.970953-52.002444 239.962056-52.002443 87.986087 0 173.967158 18.002487 237.957039 52.002443 65.994898 33.978627 105.988574 81.971038 111.982293 131.968466 0 5.993719-4.010033 12.008768-10.003751 12.008768z" fill="#E7A661" p-id="1569"></path><path d="M41.998692 890.026518v-5.993719h1.983687v-2.005016h2.005016c39.993676-26.001222 67.999914-41.998692 93.979806-39.993676 26.022552 2.005016 47.992411 18.002487 79.987352 43.982378 22.012519 18.002487 38.00999 6.015049 65.994898-15.99747 14.013784-13.992454 30.011254-27.984908 49.997427-31.994941 23.996206-5.993719 45.987395 2.005016 69.983601 26.001222 6.015049 4.010033 7.998735 7.998735 12.008768 12.008768v-2.005017l7.998735-7.998735c23.996206-23.996206 43.982379-33.999957 63.989881-33.999957 21.969859 2.005016 35.983643 18.002487 47.992412 31.994941 7.998735 7.998735 15.99747 18.002487 23.996205 20.007503 43.982379 15.99747 59.979849 0 77.982336-15.99747 13.992454-12.008768 28.006238-23.996206 49.997427-26.022552 26.001222 0 55.991146 12.008768 97.989839 40.015006 3.988703 2.005016 5.972389 5.993719 3.988703 10.003751v121.964715c0 6.015049-3.988703 10.003751-10.003752 10.003751H52.002444c-6.015049 0-10.025081-3.988703-10.025082-10.003751V890.047848z" fill="#FFD686" p-id="1570"></path><path d="M273.962013 984.006324c-10.003751 0-18.002487-2.005016-29.989924-12.008768-46.008725-37.96733-55.991146-41.977362-115.992326-3.988702-5.993719 3.988703-11.987438 2.005016-13.992454-2.005017-4.010033-3.988703-2.005016-10.003751 2.005016-13.992454 31.994941-20.007503 53.9648-31.994941 77.982336-29.989924 19.986173 1.983686 37.98866 13.992454 63.989882 35.983643 15.99747 13.992454 27.984908 4.010033 49.997427-13.992454 23.996206-20.007503 55.991146-47.992411 101.957212-4.010033 2.026346 2.005016 6.015049 6.015049 6.015048 7.998736l5.993719-5.972389c20.007503-20.007503 38.00999-30.011254 54.00746-28.006239 19.986173 0 31.994941 13.992454 41.977363 25.979892 6.015049 6.015049 12.008768 14.013784 15.99747 15.997471 36.004973 12.008768 49.997427 0 63.989882-11.987438 10.025081-10.003751 22.012519-21.991189 42.020022-21.991189 19.986173-2.005016 45.966065 9.982422 79.987352 31.99494 3.988703 1.983686 5.972389 7.998735 1.983686 13.992455-2.005016 3.988703-7.998735 5.993719-12.008767 2.005016-65.973568-41.998692-79.987352-30.011254-97.968509-12.008768-15.99747 13.992454-36.004973 31.994941-83.997385 15.997471-10.003751-3.988703-18.002487-11.987438-26.001222-21.99119-7.998735-7.998735-15.99747-18.002487-25.979892-18.002486-10.025081-2.005016-23.996206 5.993719-39.993676 21.991189l-6.015048 6.015049c-3.988703 3.988703-7.998735 7.998735-13.992455 7.998735s-7.998735-4.010033-11.987437-7.998735l-7.998736-7.998736c-31.994941-30.011254-52.002444-14.013784-74.014963 5.993719-13.971124 11.987438-29.968595 23.996206-47.992411 23.996206z m-36.004973-189.964629h-17.981157c-6.015049 0-10.025081-6.015049-10.025081-10.003751 0-5.993719 4.010033-10.003751 10.025081-10.003751h17.981157c6.015049 0 10.003751 4.010033 10.003751 10.003751 0 3.988703-3.988703 10.003751-10.003751 10.003751z m373.956868 0h-18.002487c-4.010033 0-10.003751-6.015049-10.003751-10.003751 0-5.993719 5.993719-10.003751 10.003751-10.003751h18.002487c5.972389 0 9.982422 4.010033 9.982421 10.003751 0 3.988703-3.988703 10.003751-9.982421 10.003751z m-185.997256 23.996206h-17.981157c-5.993719 0-10.003751-4.010033-10.003751-10.003751 0-4.010033 4.010033-10.003751 10.025081-10.003752h17.981157c5.993719 0 10.003751 5.993719 10.003751 10.003752 0 5.993719-4.010033 10.003751-10.025081 10.003751z m0-31.994941h-17.981157c-5.993719 0-10.003751-6.015049-10.003751-10.003751 0-5.993719 4.010033-10.003751 10.025081-10.003752h17.981157c5.993719 0 10.003751 4.010033 10.003751 10.003752 0 3.988703-4.010033 10.003751-10.025081 10.003751zM239.962056 832.030355h-18.002487c-5.993719 0-9.982422-4.010033-9.982421-10.003751 0-5.993719 3.988703-10.003751 9.982421-10.003752h18.002487c5.993719 0 10.003751 4.010033 10.003751 10.025082 0 5.972389-4.010033 9.982422-10.003751 9.982421z m385.944306 0H607.903875c-5.993719 0-10.003751-4.010033-10.003751-10.003751 0-5.993719 4.010033-10.003751 10.025081-10.003752h17.981157c5.993719 0 10.003751 4.010033 10.003751 10.025082 0 5.972389-6.015049 9.982422-10.025081 9.982421z" fill="#FFFFFF" p-id="1571"></path></svg>
