<svg t="1731468214986" class="icon" viewBox="0 0 1024 1024" version="1.1" xmlns="http://www.w3.org/2000/svg" p-id="8110" width="200" height="200"><path d="M734.165333 97.834667l-60.330666 60.330666L771.669333 256H554.666667v85.333333h217.002666l-97.834666 97.834667 60.330666 60.330667L934.997333 298.666667l-200.832-200.832zM405.333333 298.666667a106.666667 106.666667 0 1 0-213.333333 0 106.666667 106.666667 0 0 0 213.333333 0z m85.333334 0a192 192 0 1 1-384 0 192 192 0 0 1 384 0zM252.330667 768l97.834666 97.834667-60.330666 60.330666L89.002667 725.333333l200.832-200.832 60.330666 60.330667L252.330667 682.666667H469.333333v85.333333H252.330667zM640 810.666667h170.666667v-170.666667h-170.666667v170.666667z m-85.333333-213.333334a42.666667 42.666667 0 0 1 42.666666-42.666666h256a42.666667 42.666667 0 0 1 42.666667 42.666666v256a42.666667 42.666667 0 0 1-42.666667 42.666667h-256a42.666667 42.666667 0 0 1-42.666666-42.666667v-256z" fill="#ff2a00" p-id="8111"></path></svg>
