<svg t="1731468046412" class="icon" viewBox="0 0 1024 1024" version="1.1" xmlns="http://www.w3.org/2000/svg" p-id="4298" width="200" height="200"><path d="M320 384v256h-64V384h64m-32-158c-17.6 0-32 14.4-32 32v62h-32c-17.6 0-32 14.4-32 32v320c0 17.6 14.4 32 32 32h32v62c0 17.6 14.4 32 32 32s32-14.4 32-32v-62h32c17.6 0 32-14.4 32-32V352c0-17.6-14.4-32-32-32h-32v-62c0-17.6-14.4-32-32-32z" p-id="4299" fill="#ff2a00"></path><path d="M96 64c-17.6 0-32 14.4-32 32v832c0 17.6 14.4 32 32 32h832c17.6 0 32-14.4 32-32s-14.4-32-32-32H128V96c0-17.6-14.4-32-32-32z" p-id="4300" fill="#ff2a00"></path><path d="M576 256v384h-64V256h64M544 64c-17.6 0-32 14.4-32 32v96h-32c-17.6 0-32 14.4-32 32v448c0 17.6 14.4 32 32 32h32v96c0 17.6 14.4 32 32 32s32-14.4 32-32v-96h32c17.6 0 32-14.4 32-32V224c0-17.6-14.4-32-32-32h-32V96c0-17.6-14.4-32-32-32zM832 384v256h-64V384h64m-32-158c-17.6 0-32 14.4-32 32v62h-32c-17.6 0-32 14.4-32 32v320c0 17.6 14.4 32 32 32h32v62c0 17.6 14.4 32 32 32s32-14.4 32-32v-62h32c17.6 0 32-14.4 32-32V352c0-17.6-14.4-32-32-32h-32v-62c0-17.6-14.4-32-32-32z" p-id="4301" fill="#ff2a00"></path><path d="M321 486c-0.5 0-1 0.5-1 1s0.5 1 1 1 1-0.5 1-1-0.5-1-1-1z" p-id="4302" fill="#ff2a00"></path></svg>
