<svg xmlns="http://www.w3.org/2000/svg" xmlns:xlink="http://www.w3.org/1999/xlink" viewBox="0 0 537.3 159.8"><defs><style>.cls-1{fill:#1a1a1a;}.cls-2{fill:url(#未命名的渐变_68);}.cls-3{fill:url(#未命名的渐变_68-2);}.cls-4{fill:url(#未命名的渐变_68-3);}.cls-5{fill:url(#未命名的渐变_68-4);}</style><linearGradient id="未命名的渐变_68" x1="83.59" y1="47.98" x2="60.06" y2="146.48" gradientUnits="userSpaceOnUse"><stop offset="0" stop-color="#f44d80"/><stop offset="0" stop-color="#f44d80"/><stop offset="0.17" stop-color="#f93e49"/><stop offset="0.31" stop-color="#fc3321"/><stop offset="0.43" stop-color="#fe2c09"/><stop offset="0.5" stop-color="#ff2a00"/><stop offset="0.58" stop-color="#ff3306"/><stop offset="0.7" stop-color="#ff4b18"/><stop offset="0.86" stop-color="#ff7333"/><stop offset="1" stop-color="#ff9b50"/></linearGradient><linearGradient id="未命名的渐变_68-2" x1="41.57" y1="37.95" x2="18.05" y2="136.45" xlink:href="#未命名的渐变_68"/><linearGradient id="未命名的渐变_68-3" x1="74.27" y1="45.76" x2="50.75" y2="144.25" xlink:href="#未命名的渐变_68"/><linearGradient id="未命名的渐变_68-4" x1="32.29" y1="35.73" x2="8.77" y2="134.23" xlink:href="#未命名的渐变_68"/></defs><g id="图层_2" data-name="图层 2"><g id="图层_1-2" data-name="图层 1"><path class="cls-1" d="M160.5,33.8h17.4l2.7-26.9h20.6l-7.4,67.7H173.1L175.9,48H158.5l-2.7,26.6H135.2l7.5-67.7h20.6Z"/><path class="cls-1" d="M251.6,6.9h0l15.1,67.7H247.3a13.4,13.4,0,0,0,2-.1L237.8,25.4,220.2,74.6a14.8,14.8,0,0,1-2.1.1H200.7l26-67.7h24.9Z"/><path class="cls-1" d="M330.8,62.8a39.9,39.9,0,0,1-13,8.6,37.6,37.6,0,0,1-15.6,3.2,34.8,34.8,0,0,1-17.7-4.5,31.4,31.4,0,0,1-11.8-12.2,30.6,30.6,0,0,1-3.2-17.1,35.5,35.5,0,0,1,6.8-17.1,41.9,41.9,0,0,1,14.2-12.2,40.1,40.1,0,0,1,18.7-4.6,35.1,35.1,0,0,1,15,3.2,31.1,31.1,0,0,1,11.2,8.7L320.1,32.2a14.4,14.4,0,0,0-12.8-7,17.4,17.4,0,0,0-11.8,4.5,17,17,0,0,0-5.9,11.1,13.5,13.5,0,0,0,1.4,7.8,13,13,0,0,0,5.2,5.7,14.8,14.8,0,0,0,7.9,2.1,16.5,16.5,0,0,0,7.9-1.9,18.7,18.7,0,0,0,6.3-5.2Z"/><path class="cls-1" d="M336.2,74l5.6-67.1h15.7L354,48.7,383.5,6.9h18.2L380.9,36.5l13.3,38.1H377.9l-8-22.6L354,74.6H335.7Z"/><path class="cls-1" d="M408.3,6.8h59.4L466,25.1H424.7l-.6,6.7h41.2l-1.8,18.3H422.3l-.6,6.4h41.2l-1.7,18.2H401.7Z"/><path class="cls-1" d="M507.1,59.2H490l-1.5,15.5H471.3l6.2-67.9,38,.2c6.8.2,12.3,2.7,16.3,7.6s5.9,11.1,5.4,18.4a30.4,30.4,0,0,1-4.3,12.9,29.9,29.9,0,0,1-9.1,9.3l11.3,19.5h-19ZM493.7,23.9l-1.5,15.9h20.2a7.8,7.8,0,0,0,5.4-2.3,9.6,9.6,0,0,0,2.7-5.7,7.7,7.7,0,0,0-1.7-5.6,6.2,6.2,0,0,0-4.9-2.3Z"/><path class="cls-1" d="M138.7,144.4V98.3h5.7V139h21.4v5.4Z"/><path class="cls-1" d="M171.8,103.8V97.9h5.7v5.9Zm0,40.6V109.9h5.7v34.5Z"/><path class="cls-1" d="M187.1,144.4V109.9h5.1v9.2h.7v25.3Zm24.7,0V127.1a24.2,24.2,0,0,0-.5-4.7,13.4,13.4,0,0,0-1.5-4.1,8.1,8.1,0,0,0-2.9-2.9,8.8,8.8,0,0,0-4.5-1,9.7,9.7,0,0,0-3.9.7,7.3,7.3,0,0,0-3,2.2,10,10,0,0,0-1.9,3.7,16.4,16.4,0,0,0-.7,5.2l-3.8-1.1a19.3,19.3,0,0,1,1.8-8.7,12.9,12.9,0,0,1,5.1-5.5,15,15,0,0,1,7.8-1.9,14.2,14.2,0,0,1,5.7,1,11.5,11.5,0,0,1,3.9,2.8,13.6,13.6,0,0,1,2.5,3.9,18,18,0,0,1,1.2,4.4,21.2,21.2,0,0,1,.4,4.2v19.1Z"/><path class="cls-1" d="M240.5,145.4a17.1,17.1,0,0,1-8.9-2.3,15.6,15.6,0,0,1-5.9-6.3,20,20,0,0,1-2.1-9.4,21.2,21.2,0,0,1,2.1-9.8,15,15,0,0,1,5.8-6.4,16.6,16.6,0,0,1,8.7-2.3,15.8,15.8,0,0,1,8.9,2.4,14.1,14.1,0,0,1,5.5,6.9,24.5,24.5,0,0,1,1.6,10.5h-5.8v-2c0-4.2-.9-7.4-2.6-9.5s-4.1-3.2-7.4-3.2a9.8,9.8,0,0,0-8,3.4c-1.8,2.3-2.8,5.5-2.8,9.7s1,7.3,2.8,9.5,4.4,3.4,7.8,3.4a10.8,10.8,0,0,0,6-1.6,10.4,10.4,0,0,0,4-4.5l5.4,1.9a15.4,15.4,0,0,1-6,7.1A17.8,17.8,0,0,1,240.5,145.4Zm-12.8-16.7v-4.5h25.6v4.5Z"/><path class="cls-1" d="M263.3,144.4V109.9h5.1v8.3l-.8-1.1a15.9,15.9,0,0,1,1.5-2.9,11.4,11.4,0,0,1,2.2-2.2,10.3,10.3,0,0,1,3.1-1.7,13.7,13.7,0,0,1,3.4-.7,11.6,11.6,0,0,1,3.3.3v5.3a10.1,10.1,0,0,0-3.9-.2,7.6,7.6,0,0,0-4,1.5,10.2,10.2,0,0,0-2.6,2.9,11.5,11.5,0,0,0-1.2,3.7,17.5,17.5,0,0,0-.4,4v17.3Z"/><path class="cls-1" d="M295.9,145.4a14.2,14.2,0,0,1-6.5-1.4,9.9,9.9,0,0,1-5.2-8.9,9.9,9.9,0,0,1,1-4.7,9.6,9.6,0,0,1,2.9-3.4,23.5,23.5,0,0,1,4.5-2.1c1.7-.4,3.5-.8,5.6-1.1a61.7,61.7,0,0,1,6.2-.9l5.8-.8-2,1.1c0-3-.6-5.3-1.9-6.8s-3.5-2.2-6.6-2.2a10.7,10.7,0,0,0-5.5,1.4,7.6,7.6,0,0,0-3.3,4.7l-5.5-1.7a12.9,12.9,0,0,1,4.9-7.1,15.9,15.9,0,0,1,9.4-2.6,18.3,18.3,0,0,1,8.1,1.7,9.2,9.2,0,0,1,4.8,5.1,12.2,12.2,0,0,1,1,3.4c.1,1.3.2,2.6.2,4v21.3h-5.1v-8.3l1.2.8a13.6,13.6,0,0,1-5.5,6.3A15.1,15.1,0,0,1,295.9,145.4Zm.9-4.8a11.2,11.2,0,0,0,5.3-1.1,9.4,9.4,0,0,0,3.6-2.9,7.7,7.7,0,0,0,1.8-3.9,19.3,19.3,0,0,0,.6-3.6v-3l2,.8-5.5.8-5.1.7-4.3,1a11.9,11.9,0,0,0-2.6,1.1,5.9,5.9,0,0,0-2,1.8,5.1,5.1,0,0,0-.8,2.8,5,5,0,0,0,.8,2.6,4.5,4.5,0,0,0,2.2,2.1A7.7,7.7,0,0,0,296.8,140.6Z"/><path class="cls-1" d="M348.5,145.4a14,14,0,0,1-8.3-2.4,16.1,16.1,0,0,1-5.4-6.6,22.7,22.7,0,0,1-1.8-9.3,23.4,23.4,0,0,1,1.8-9.3,16.4,16.4,0,0,1,5.4-6.5,13.9,13.9,0,0,1,8.2-2.4,13.5,13.5,0,0,1,8.2,2.4,14.5,14.5,0,0,1,5.1,6.5,24.5,24.5,0,0,1,1.7,9.3,24.9,24.9,0,0,1-1.7,9.3,14.7,14.7,0,0,1-5.1,6.6A13.4,13.4,0,0,1,348.5,145.4Zm.7-5.2a9.4,9.4,0,0,0,5.7-1.7,9.8,9.8,0,0,0,3.3-4.6,21.6,21.6,0,0,0,0-13.6,9.5,9.5,0,0,0-3.3-4.5,10.2,10.2,0,0,0-11.4.1,10.7,10.7,0,0,0-3.4,4.6,20.7,20.7,0,0,0,0,13.3,10.7,10.7,0,0,0,3.4,4.6A8.8,8.8,0,0,0,349.2,140.2Zm10.1,4.2V119h-.7V98.3h5.8v46.1Z"/><path class="cls-1" d="M370.1,144.4l15.4-46.1h8l15.4,46.1H403l-14.4-42.7h1.7L376,144.4Zm7.4-10.8v-5.3h24v5.3Z"/><path class="cls-1" d="M414.6,159.8V109.9h5.1v25.4h.7v24.5Zm15.9-14.4a13.9,13.9,0,0,1-8.2-2.4,14.6,14.6,0,0,1-5-6.6,24.9,24.9,0,0,1-1.7-9.3,24.5,24.5,0,0,1,1.7-9.3,13.8,13.8,0,0,1,5.1-6.5,13.5,13.5,0,0,1,8.2-2.4,13.9,13.9,0,0,1,8.2,2.4,15.7,15.7,0,0,1,5.4,6.5,23.4,23.4,0,0,1,1.8,9.3,22.7,22.7,0,0,1-1.8,9.3,15.3,15.3,0,0,1-5.4,6.6A14,14,0,0,1,430.5,145.4Zm-.7-5.2a8.8,8.8,0,0,0,5.7-1.8,10.7,10.7,0,0,0,3.4-4.6,20.7,20.7,0,0,0,0-13.3,10.7,10.7,0,0,0-3.4-4.6,10.2,10.2,0,0,0-11.4-.1,9.5,9.5,0,0,0-3.3,4.5,21.6,21.6,0,0,0,0,13.6,9.8,9.8,0,0,0,3.3,4.6A9.4,9.4,0,0,0,429.8,140.2Z"/><path class="cls-1" d="M453,159.8V109.9h5.1v25.4h.7v24.5Zm15.9-14.4a13.9,13.9,0,0,1-8.2-2.4,14.6,14.6,0,0,1-5-6.6,24.9,24.9,0,0,1-1.7-9.3,24.5,24.5,0,0,1,1.7-9.3,13.8,13.8,0,0,1,5.1-6.5,13.5,13.5,0,0,1,8.2-2.4,13.9,13.9,0,0,1,8.2,2.4,15.7,15.7,0,0,1,5.4,6.5,23.4,23.4,0,0,1,1.8,9.3,22.7,22.7,0,0,1-1.8,9.3,15.3,15.3,0,0,1-5.4,6.6A14,14,0,0,1,468.9,145.4Zm-.7-5.2a8.8,8.8,0,0,0,5.7-1.8,10.7,10.7,0,0,0,3.4-4.6,20.7,20.7,0,0,0,0-13.3,10.7,10.7,0,0,0-3.4-4.6,10.2,10.2,0,0,0-11.4-.1,9.5,9.5,0,0,0-3.3,4.5,21.6,21.6,0,0,0,0,13.6,9.8,9.8,0,0,0,3.3,4.6A9.4,9.4,0,0,0,468.2,140.2Z"/><path class="cls-1" d="M504,145.4a17.5,17.5,0,0,1-10.1-2.7,11.7,11.7,0,0,1-4.8-7.6l5.8-.9a7.4,7.4,0,0,0,3.2,4.4,11.4,11.4,0,0,0,6.3,1.7,9.3,9.3,0,0,0,5.6-1.5,4.8,4.8,0,0,0,2-4,3.6,3.6,0,0,0-.7-2.4,5.8,5.8,0,0,0-2.8-1.7c-1.4-.5-3.5-1.2-6.3-1.9a48.7,48.7,0,0,1-7.2-2.5,9,9,0,0,1-3.7-3.1,6.9,6.9,0,0,1-1.1-4.2,8.8,8.8,0,0,1,1.6-5.3,10.6,10.6,0,0,1,4.7-3.5,16.7,16.7,0,0,1,6.9-1.3,17.6,17.6,0,0,1,7.1,1.3,12.9,12.9,0,0,1,5,3.5,10.1,10.1,0,0,1,2.2,5.3l-5.8,1.1a6.4,6.4,0,0,0-2.7-4.4,10.2,10.2,0,0,0-5.8-1.7,9,9,0,0,0-5.4,1.2,4,4,0,0,0-2.1,3.5,2.9,2.9,0,0,0,.8,2.2,8.1,8.1,0,0,0,2.9,1.7l6.2,1.8a39.3,39.3,0,0,1,7.2,2.5,9.2,9.2,0,0,1,3.7,3.2,7.9,7.9,0,0,1,1.2,4.5,9.5,9.5,0,0,1-3.7,7.9C511.7,144.4,508.3,145.4,504,145.4Z"/><path class="cls-2" d="M98.4,3a9.6,9.6,0,0,0-7-3H77.6L75.3,35.5a10.9,10.9,0,0,0,5,9.9,48.8,48.8,0,0,1,13.9,14l3,4.7.6-5.5a11.1,11.1,0,0,0,.2-1.9l2.9-46.6A9.2,9.2,0,0,0,98.4,3Z"/><path class="cls-3" d="M69.4,89.7a10.7,10.7,0,0,0-3.9-9,11.5,11.5,0,0,0-10.2-2.2,23.3,23.3,0,0,1-5.3.6,21.4,21.4,0,0,1-11.7-3.4A19.2,19.2,0,0,1,34,71.9a21.1,21.1,0,0,1-5-15.2L32.6,0H18.4A10.7,10.7,0,0,0,7.9,9.9L5,56.5c0,.6-.1,1.2-.1,1.8A45.5,45.5,0,0,0,7.3,73.9,42.5,42.5,0,0,0,23.5,95.4l.4.3a44.9,44.9,0,0,0,24.8,7.4,47.9,47.9,0,0,0,10.6-1.2A13,13,0,0,0,69.4,90.1Z"/><path class="cls-4" d="M77.4,50.6l-.3-.3A43.5,43.5,0,0,0,68.8,46a44.1,44.1,0,0,0-16.6-3.1,47,47,0,0,0-10.5,1.2A12.9,12.9,0,0,0,31.6,55.9v.4a11.3,11.3,0,0,0,3.9,9,11.6,11.6,0,0,0,10.2,2.2,24.8,24.8,0,0,1,5.4-.6,21.3,21.3,0,0,1,11.6,3.4A17.7,17.7,0,0,1,67,74.1a21.5,21.5,0,0,1,5,15.2L68.4,146H82.5A10.6,10.6,0,0,0,93,136.1l2.9-46.6a10.9,10.9,0,0,0,.1-1.8,43.1,43.1,0,0,0-2.3-15.6A42.1,42.1,0,0,0,77.4,50.6Z"/><path class="cls-5" d="M20.7,101.1a49.1,49.1,0,0,1-14-14l-3-4.7-.6,5.5c-.1.6-.1,1.2-.2,1.9L0,135.9A9.3,9.3,0,0,0,2.6,143a9.2,9.2,0,0,0,6.9,3H23.4l2.2-35A11.1,11.1,0,0,0,20.7,101.1Z"/></g></g></svg>