<svg width="16" height="16" viewBox="0 0 16 16" fill="none" xmlns="http://www.w3.org/2000/svg">
<path d="M14.2734 5.76C14.2734 5.76 14.2734 5.76 14.2734 5.72667C13.8036 4.44415 12.9513 3.33686 11.8317 2.55458C10.7121 1.7723 9.3792 1.35278 8.01336 1.35278C6.64753 1.35278 5.31465 1.7723 4.19504 2.55458C3.07542 3.33686 2.2231 4.44415 1.75336 5.72667C1.75336 5.72667 1.75336 5.72667 1.75336 5.76C1.22878 7.20727 1.22878 8.79274 1.75336 10.24C1.75336 10.24 1.75336 10.24 1.75336 10.2733C2.2231 11.5559 3.07542 12.6631 4.19504 13.4454C5.31465 14.2277 6.64753 14.6472 8.01336 14.6472C9.3792 14.6472 10.7121 14.2277 11.8317 13.4454C12.9513 12.6631 13.8036 11.5559 14.2734 10.2733C14.2734 10.2733 14.2734 10.2733 14.2734 10.24C14.7979 8.79274 14.7979 7.20727 14.2734 5.76ZM2.84003 9.33334C2.60885 8.45948 2.60885 7.54053 2.84003 6.66667H4.08003C3.97338 7.55236 3.97338 8.44765 4.08003 9.33334H2.84003ZM3.3867 10.6667H4.32003C4.47651 11.2612 4.70017 11.836 4.9867 12.38C4.33289 11.9346 3.78636 11.3494 3.3867 10.6667ZM4.32003 5.33334H3.3867C3.78061 4.65273 4.32016 4.06765 4.9667 3.62C4.68706 4.16483 4.47012 4.73962 4.32003 5.33334ZM7.33336 13.1333C6.51454 12.5325 5.93946 11.6568 5.71336 10.6667H7.33336V13.1333ZM7.33336 9.33334H5.4267C5.30229 8.4488 5.30229 7.55121 5.4267 6.66667H7.33336V9.33334ZM7.33336 5.33334H5.71336C5.93946 4.34318 6.51454 3.46755 7.33336 2.86667V5.33334ZM12.6134 5.33334H11.68C11.5236 4.73877 11.2999 4.16396 11.0134 3.62C11.6672 4.06538 12.2137 4.65063 12.6134 5.33334ZM8.6667 2.86667C9.48552 3.46755 10.0606 4.34318 10.2867 5.33334H8.6667V2.86667ZM8.6667 13.1333V10.6667H10.2867C10.0606 11.6568 9.48552 12.5325 8.6667 13.1333ZM10.5734 9.33334H8.6667V6.66667H10.5734C10.6978 7.55121 10.6978 8.4488 10.5734 9.33334ZM11.0334 12.38C11.3199 11.836 11.5435 11.2612 11.7 10.6667H12.6334C12.2337 11.3494 11.6872 11.9346 11.0334 12.38ZM13.16 9.33334H11.92C11.9742 8.89097 12.001 8.44567 12 8C12.0008 7.55434 11.974 7.10905 11.92 6.66667H13.16C13.3912 7.54053 13.3912 8.45948 13.16 9.33334Z" fill="white"/>
</svg>
