<svg width="60" height="60" viewBox="0 0 60 60" fill="none" xmlns="http://www.w3.org/2000/svg">
<rect width="60" height="60" fill="#DBFD51"/>
<path d="M37.4941 41.8209V37.4214L39.9235 39.8473C41.7353 38.0382 43.0529 35.6946 43.6706 33.1043L40.5412 29.9794H44C44 27.2247 43.2176 24.6755 41.8588 22.5374H37.4941L39.9235 20.1116C38.0706 18.2614 35.7647 16.9457 33.1294 16.37L30 19.4949V16C27.2412 16 24.6882 16.7812 22.5471 18.138V22.4963L20.1176 20.1116C18.3059 21.9207 16.9882 24.2643 16.3706 26.8546L19.5 29.9794H16C16 32.7342 16.7824 35.2834 18.1412 37.4214H22.5059L20.1176 39.8884C21.9294 41.6975 24.2765 43.0132 26.8706 43.63L30 40.5051V44C32.7588 43.9589 35.3118 43.1777 37.4941 41.8209ZM23 29.9794C23 26.1145 26.1294 22.9897 30 22.9897C33.8706 22.9897 37 26.1145 37 29.9794C37 33.8443 33.8706 36.9692 30 36.9692C26.1294 36.9692 23 33.8443 23 29.9794Z" fill="#2D2D2D"/>
</svg>
